<svg width="680" height="90" viewBox="0 0 680 90" fill="none" xmlns="http://www.w3.org/2000/svg">
<path d="M59.792 69.848C63.5467 71.384 65.424 73.4747 65.424 76.12C65.424 79.192 62.992 82.008 58.128 84.568C53.264 87.0427 47.248 88.28 40.08 88.28C28.048 88.28 18.4053 84.2693 11.152 76.248C3.89867 68.1413 0.272 57.56 0.272 44.504C0.272 30.8507 3.89867 20.184 11.152 12.504C18.4053 4.73866 28.2187 0.855995 40.592 0.855995C47.248 0.855995 52.8373 2.22133 57.36 4.952C61.8827 7.59733 64.144 10.8827 64.144 14.808C64.144 18.3067 61.712 20.44 56.848 21.208C55.2267 17.0267 52.6667 13.912 49.168 11.864C45.6693 9.73066 41.9573 8.66399 38.032 8.66399C30.0107 8.66399 23.44 11.864 18.32 18.264C13.2853 24.5787 10.768 32.472 10.768 41.944C10.768 52.8667 13.328 62.04 18.448 69.464C23.568 76.8027 30.736 80.472 39.952 80.472C44.048 80.472 47.8453 79.576 51.344 77.784C54.928 75.992 57.744 73.3467 59.792 69.848ZM110.808 59.992C109.187 56.152 105.731 47.064 100.44 32.728C96.1733 45.016 92.8027 54.0613 90.328 59.864C95.448 60.0347 99.3733 60.12 102.104 60.12C106.115 60.12 109.016 60.0773 110.808 59.992ZM100.056 66.904C98.264 66.904 94.1253 66.8187 87.64 66.648C87.2133 67.672 86.2747 69.9333 84.824 73.432C83.4587 76.9307 82.3493 79.8747 81.496 82.264C80.6427 84.568 79.9173 86.8293 79.32 89.048C74.2853 88.3653 71.768 87.0427 71.768 85.08C71.768 84.2267 72.152 82.8187 72.92 80.856C73.7733 78.8933 75.1813 75.6507 77.144 71.128C79.192 66.52 81.112 61.912 82.904 57.304C89.56 40.152 93.912 28.12 95.96 21.208C97.3253 20.952 98.904 20.824 100.696 20.824C102.573 20.824 103.896 21.1227 104.664 21.72C105.432 22.232 106.285 23.7253 107.224 26.2C107.907 27.992 109.741 32.984 112.728 41.176C115.8 49.2827 118.189 55.512 119.896 59.864C123.992 69.9333 128.003 78.68 131.928 86.104C129.539 87.2987 127.619 87.896 126.168 87.896C123.608 87.896 121.859 87.0427 120.92 85.336C120.408 84.1413 117.891 77.912 113.368 66.648C106.029 66.8187 101.592 66.904 100.056 66.904ZM161.598 56.28C166.035 56.28 169.491 55.0427 171.966 52.568C174.441 50.008 175.678 46.5947 175.678 42.328C175.678 36.44 174.27 32.3867 171.454 30.168C168.723 27.9493 164.414 26.84 158.526 26.84C158.185 26.84 155.838 26.968 151.486 27.224C151.742 32.856 151.87 39.2987 151.87 46.552V54.232C154.601 55.5973 157.843 56.28 161.598 56.28ZM142.526 63.96V43.992C142.526 34.776 142.099 27.1387 141.246 21.08C145.854 20.312 151.187 19.928 157.246 19.928C176.361 19.928 185.918 27.1813 185.918 41.688C185.918 48.7707 183.742 54.1467 179.39 57.816C175.123 61.4853 170.089 63.32 164.286 63.32C159.251 63.32 155.113 62.2533 151.87 60.12V67.16C151.87 75.9493 152.553 82.4347 153.918 86.616C152.382 87.0427 150.505 87.256 148.286 87.256C145.982 87.256 144.403 86.8293 143.55 85.976C142.782 85.1227 142.398 83.672 142.398 81.624C142.398 80.6 142.398 77.9973 142.398 73.816C142.483 69.6347 142.526 66.3493 142.526 63.96ZM325.886 1.62399C328.275 1.11199 330.067 0.855995 331.262 0.855995C333.139 0.855995 334.505 1.28266 335.358 2.13599C336.297 2.90399 336.766 4.31199 336.766 6.35999C336.766 16.2587 333.95 29.0587 328.318 44.76C322.771 60.376 316.969 72.2373 310.91 80.344C308.777 83.16 307.027 85.0373 305.662 85.976C304.382 86.9147 302.803 87.384 300.926 87.384C299.902 87.384 298.537 87.2987 296.83 87.128C293.502 69.208 288.169 50.392 280.83 30.68C278.099 40.152 274.686 49.5387 270.59 58.84C266.579 68.056 262.654 75.224 258.814 80.344C256.681 83.16 254.931 85.0373 253.566 85.976C252.286 86.9147 250.707 87.384 248.83 87.384C247.891 87.384 246.569 87.2987 244.862 87.128C242.387 73.4747 238.035 57.7733 231.806 40.024C225.662 22.1893 220.457 11.0107 216.19 6.488C219.689 3.33067 222.803 1.752 225.534 1.752C228.009 1.752 230.014 3.58666 231.55 7.256C234.707 14.68 238.291 25.304 242.302 39.128C246.313 52.952 249.555 65.2827 252.03 76.12C256.638 70.5733 261.502 60.3333 266.622 45.4C271.742 30.3813 274.302 17.9653 274.302 8.15199C274.302 5.08 274.131 2.904 273.79 1.62399C276.179 1.11199 277.971 0.855995 279.166 0.855995C281.043 0.855995 282.409 1.28266 283.262 2.13599C284.201 2.90399 284.67 4.31199 284.67 6.35999C284.67 8.83466 284.457 11.2667 284.03 13.656C289.662 22.5307 296.318 43.352 303.998 76.12C308.606 70.488 313.47 60.2053 318.59 45.272C323.795 30.3387 326.398 17.9653 326.398 8.15199C326.398 5.08 326.227 2.904 325.886 1.62399ZM351.919 63.96V43.992C351.919 35.1173 351.663 27.4373 351.151 20.952C352.687 20.696 354.308 20.568 356.015 20.568C360.026 20.568 362.031 21.848 362.031 24.408C362.031 24.7493 361.946 26.072 361.775 28.376C361.69 30.68 361.562 33.5387 361.391 36.952C361.22 40.3653 361.135 43.608 361.135 46.68V66.776C361.135 75.736 361.818 82.3067 363.183 86.488C361.903 87 360.026 87.256 357.551 87.256C355.247 87.256 353.668 86.8293 352.815 85.976C352.047 85.1227 351.663 83.672 351.663 81.624C351.663 80.6 351.706 77.9973 351.791 73.816C351.876 69.6347 351.919 66.3493 351.919 63.96ZM429.049 22.36C430.158 23.64 430.713 24.9627 430.713 26.328C430.713 27.9493 430.116 29.4853 428.921 30.936L386.937 80.728C389.326 80.8987 391.801 80.984 394.361 80.984C407.844 80.984 419.022 79.9173 427.897 77.784C428.58 79.832 428.921 81.368 428.921 82.392C428.921 84.0987 428.281 85.2507 427.001 85.848C425.806 86.36 423.886 86.744 421.241 87C417.486 87.3413 411.854 87.512 404.345 87.512C394.702 87.512 386.468 87.1707 379.641 86.488C378.361 84.7813 377.721 83.1173 377.721 81.496C377.721 79.2773 378.574 77.1867 380.281 75.224L419.449 27.864C417.145 27.608 413.262 27.48 407.801 27.48C397.817 27.48 388.985 28.376 381.305 30.168C380.622 28.2907 380.281 26.712 380.281 25.432C380.281 23.384 381.262 22.0613 383.225 21.464C386.126 20.7813 390.649 20.44 396.793 20.44C409.337 20.44 420.089 21.08 429.049 22.36ZM473.683 59.992C472.062 56.152 468.606 47.064 463.315 32.728C459.048 45.016 455.678 54.0613 453.203 59.864C458.323 60.0347 462.248 60.12 464.979 60.12C468.99 60.12 471.891 60.0773 473.683 59.992ZM462.931 66.904C461.139 66.904 457 66.8187 450.515 66.648C450.088 67.672 449.15 69.9333 447.699 73.432C446.334 76.9307 445.224 79.8747 444.371 82.264C443.518 84.568 442.792 86.8293 442.195 89.048C437.16 88.3653 434.643 87.0427 434.643 85.08C434.643 84.2267 435.027 82.8187 435.795 80.856C436.648 78.8933 438.056 75.6507 440.019 71.128C442.067 66.52 443.987 61.912 445.779 57.304C452.435 40.152 456.787 28.12 458.835 21.208C460.2 20.952 461.779 20.824 463.571 20.824C465.448 20.824 466.771 21.1227 467.539 21.72C468.307 22.232 469.16 23.7253 470.099 26.2C470.782 27.992 472.616 32.984 475.603 41.176C478.675 49.2827 481.064 55.512 482.771 59.864C486.867 69.9333 490.878 78.68 494.803 86.104C492.414 87.2987 490.494 87.896 489.043 87.896C486.483 87.896 484.734 87.0427 483.795 85.336C483.283 84.1413 480.766 77.912 476.243 66.648C468.904 66.8187 464.467 66.904 462.931 66.904ZM543.545 78.04C545.422 79.9173 547.47 80.856 549.689 80.856C550.116 80.856 551.012 80.7707 552.377 80.6C552.974 81.7947 553.273 82.904 553.273 83.928C553.273 86.5733 550.5 87.896 544.953 87.896C542.478 87.896 540.089 87 537.785 85.208C535.481 83.3307 533.262 80.6853 531.129 77.272C528.996 73.7733 527.332 70.872 526.137 68.568C525.028 66.1787 523.662 63.1493 522.041 59.48C520.42 59.1387 519.609 58.2853 519.609 56.92C519.609 56.0667 519.908 54.7867 520.505 53.08C522.382 53.5067 524.004 53.72 525.369 53.72C529.294 53.72 532.494 52.5253 534.969 50.136C537.444 47.6613 538.681 44.3333 538.681 40.152C538.681 35.2027 537.316 31.7467 534.585 29.784C531.854 27.8213 527.673 26.84 522.041 26.84C521.529 26.84 518.969 26.968 514.361 27.224C514.702 31.1493 514.873 37.848 514.873 47.32V67.032C514.873 75.9067 515.513 82.4347 516.793 86.616C515.342 87.0427 513.465 87.256 511.161 87.256C508.857 87.256 507.278 86.8293 506.425 85.976C505.657 85.1227 505.273 83.672 505.273 81.624C505.273 80.6 505.316 77.9973 505.401 73.816C505.486 69.6347 505.529 66.3493 505.529 63.96V43.992C505.529 34.6053 505.06 26.968 504.121 21.08C508.729 20.312 514.105 19.928 520.249 19.928C539.364 19.928 548.921 26.6267 548.921 40.024C548.921 45.3147 547.385 49.624 544.313 52.952C541.326 56.28 537.316 58.4987 532.281 59.608C537.486 69.592 541.241 75.736 543.545 78.04ZM566.085 81.752C567.024 76.0347 567.578 64.856 567.749 48.216C567.749 36.7813 567.322 27.736 566.469 21.08C570.565 20.312 576.069 19.928 582.981 19.928C588.528 19.928 593.477 20.4827 597.829 21.592C602.266 22.7013 606.32 24.536 609.989 27.096C613.744 29.5707 616.602 33.0693 618.565 37.592C620.613 42.1147 621.637 47.5333 621.637 53.848C621.637 63.7467 618.778 71.896 613.061 78.296C607.344 84.696 599.237 87.896 588.741 87.896C578.928 87.896 571.376 85.848 566.085 81.752ZM576.581 27.224C576.837 30.6373 576.965 35.8853 576.965 42.968C576.965 57.4747 576.496 68.952 575.557 77.4C579.056 79.704 583.493 80.856 588.869 80.856C593.05 80.856 596.677 80.088 599.749 78.552C602.821 77.016 605.168 74.968 606.789 72.408C608.41 69.7627 609.562 67.0747 610.245 64.344C611.013 61.528 611.397 58.6267 611.397 55.64C611.397 46.0827 608.922 38.9147 603.973 34.136C599.109 29.272 592.112 26.84 582.981 26.84C582.384 26.84 581.744 26.8827 581.061 26.968C580.378 26.968 579.568 27.0107 578.629 27.096C577.776 27.1813 577.093 27.224 576.581 27.224ZM671.526 35.288C670.331 32.8987 668.241 30.936 665.254 29.4C662.267 27.7787 659.153 26.968 655.91 26.968C652.497 26.968 649.553 27.864 647.078 29.656C644.689 31.3627 643.494 33.88 643.494 37.208C643.494 39.8533 644.39 42.0293 646.182 43.736C647.974 45.3573 650.193 46.5093 652.838 47.192C655.569 47.8747 658.47 48.6853 661.542 49.624C664.699 50.5627 667.601 51.5867 670.246 52.696C672.977 53.72 675.238 55.5547 677.03 58.2C678.822 60.76 679.718 63.96 679.718 67.8C679.718 74.712 677.286 79.7893 672.422 83.032C667.643 86.2747 661.798 87.896 654.886 87.896C649.254 87.896 644.262 86.9573 639.91 85.08C635.643 83.2027 633.51 80.8987 633.51 78.168C633.51 76.0347 635.43 74.0293 639.27 72.152C640.635 74.712 643.025 76.8027 646.438 78.424C649.937 80.0453 653.521 80.856 657.19 80.856C660.945 80.856 664.187 79.96 666.918 78.168C669.734 76.2907 671.142 73.6453 671.142 70.232C671.142 67.2453 669.905 64.8987 667.43 63.192C664.955 61.4 661.926 60.0773 658.342 59.224C654.843 58.3707 651.302 57.3893 647.718 56.28C644.219 55.0853 641.233 53.1227 638.758 50.392C636.283 47.576 635.046 43.9067 635.046 39.384C635.046 33.0693 637.222 28.248 641.574 24.92C645.926 21.592 651.473 19.928 658.214 19.928C663.163 19.928 667.686 20.7813 671.782 22.488C675.963 24.1093 678.054 26.4133 678.054 29.4C678.054 32.472 675.878 34.4347 671.526 35.288Z" fill="white"/>
</svg>
