<svg width="200" height="200" viewBox="0 0 734 150" fill="none" xmlns="http://www.w3.org/2000/svg">
<path d="M34.424 111.64C29.4747 111.64 23.8853 111.213 17.656 110.36C14.2427 109.933 11.896 109.037 10.616 107.672C9.336 106.307 8.78133 104.088 8.952 101.016C9.54933 92.568 10.9573 82.1573 13.176 69.784C15.3947 57.3253 18.0827 45.336 21.24 33.816C21.8373 31.6827 23.032 30.1893 24.824 29.336C26.616 28.4827 28.9627 28.056 31.864 28.056C37.0693 28.056 39.672 29.5067 39.672 32.408C39.672 33.6027 39.416 34.968 38.904 36.504C36.6853 43.3307 34.4667 52.504 32.248 64.024C30.0293 75.4587 28.4507 86.3813 27.512 96.792C30.072 97.048 32.9733 97.176 36.216 97.176C51.1493 97.176 62.2853 92.6533 69.624 83.608C77.048 74.5627 80.76 62.488 80.76 47.384C80.76 37.2293 77.8587 29.3787 72.056 23.832C66.2533 18.2853 58.0613 15.512 47.48 15.512C40.6533 15.512 33.8693 16.5787 27.128 18.712C20.472 20.8453 14.456 23.6613 9.08 27.16C7.97067 27.928 6.776 28.312 5.496 28.312C4.04533 28.312 2.89333 27.7147 2.04 26.52C1.18667 25.24 0.76 23.704 0.76 21.912C0.76 19.864 1.10133 18.2 1.784 16.92C2.46667 15.5547 3.61867 14.3173 5.24 13.208C11.128 9.19733 18.04 6.16799 25.976 4.12C33.912 1.98666 41.5493 0.919998 48.888 0.919998C59.2987 0.919998 68.3013 2.75466 75.896 6.424C83.4907 10.008 89.336 15.2987 93.432 22.296C97.528 29.2933 99.576 37.7413 99.576 47.64C99.576 60.5253 97.016 71.7893 91.896 81.432C86.776 90.9893 79.3093 98.4133 69.496 103.704C59.6827 108.995 47.992 111.64 34.424 111.64ZM165.232 82.456C166.341 82.456 167.195 82.968 167.792 83.992C168.475 85.016 168.816 86.424 168.816 88.216C168.816 91.6293 168.005 94.2747 166.384 96.152C163.227 99.992 158.747 103.533 152.944 106.776C147.227 110.019 141.083 111.64 134.512 111.64C125.552 111.64 118.597 109.208 113.648 104.344C108.699 99.48 106.224 92.824 106.224 84.376C106.224 78.488 107.461 73.0267 109.936 67.992C112.411 62.872 115.824 58.8187 120.176 55.832C124.613 52.8453 129.605 51.352 135.152 51.352C140.101 51.352 144.069 52.8453 147.056 55.832C150.043 58.7333 151.536 62.7013 151.536 67.736C151.536 73.624 149.403 78.7013 145.136 82.968C140.955 87.1493 133.829 90.4773 123.76 92.952C125.893 96.8773 129.947 98.84 135.92 98.84C139.76 98.84 144.112 97.5173 148.976 94.872C153.925 92.1413 158.192 88.6 161.776 84.248C162.8 83.0533 163.952 82.456 165.232 82.456ZM132.976 63.896C129.819 63.896 127.131 65.7307 124.912 69.4C122.779 73.0693 121.712 77.5067 121.712 82.712V82.968C126.747 81.7733 130.715 79.9813 133.616 77.592C136.517 75.2027 137.968 72.4293 137.968 69.272C137.968 67.6507 137.499 66.3707 136.56 65.432C135.707 64.408 134.512 63.896 132.976 63.896ZM167.482 111.64C164.239 111.64 161.935 109.933 160.57 106.52C159.29 103.107 158.65 97.6453 158.65 90.136C158.65 79.0427 160.229 68.504 163.386 58.52C164.154 56.0453 165.391 54.2533 167.098 53.144C168.89 51.9493 171.365 51.352 174.522 51.352C176.229 51.352 177.423 51.5653 178.106 51.992C178.789 52.4187 179.13 53.2293 179.13 54.424C179.13 55.7893 178.49 58.8613 177.21 63.64C176.357 67.0533 175.674 70.04 175.162 72.6C174.65 75.16 174.223 78.3173 173.882 82.072C176.698 74.7333 179.855 68.76 183.354 64.152C186.853 59.544 190.266 56.2587 193.594 54.296C197.007 52.3333 200.122 51.352 202.938 51.352C208.485 51.352 211.258 54.1253 211.258 59.672C211.258 63 210.319 69.016 208.442 77.72C206.821 85.144 206.01 90.0507 206.01 92.44C206.01 95.8533 207.247 97.56 209.722 97.56C211.429 97.56 213.434 96.536 215.738 94.488C218.127 92.3547 221.285 88.9413 225.21 84.248C226.234 83.0533 227.386 82.456 228.666 82.456C229.775 82.456 230.629 82.968 231.226 83.992C231.909 85.016 232.25 86.424 232.25 88.216C232.25 91.6293 231.439 94.2747 229.818 96.152C226.149 100.675 222.181 104.387 217.914 107.288C213.733 110.189 208.954 111.64 203.578 111.64C199.226 111.64 195.941 110.403 193.722 107.928C191.503 105.368 190.394 101.699 190.394 96.92C190.394 94.5307 190.991 90.264 192.186 84.12C193.295 78.744 193.85 75.032 193.85 72.984C193.85 71.6187 193.381 70.936 192.442 70.936C191.333 70.936 189.754 72.3867 187.706 75.288C185.743 78.104 183.695 81.8587 181.562 86.552C179.514 91.2453 177.85 96.1947 176.57 101.4C175.631 105.411 174.522 108.141 173.242 109.592C172.047 110.957 170.127 111.64 167.482 111.64ZM238.662 42.904C235.078 42.904 232.39 42.0933 230.598 40.472C228.806 38.7653 227.91 36.4187 227.91 33.432C227.91 30.4453 229.062 27.9707 231.366 26.008C233.755 23.96 236.699 22.936 240.198 22.936C243.355 22.936 245.915 23.704 247.878 25.24C249.841 26.776 250.822 28.952 250.822 31.768C250.822 35.1813 249.713 37.912 247.494 39.96C245.275 41.9227 242.331 42.904 238.662 42.904ZM237.638 111.64C232.091 111.64 228.038 109.677 225.478 105.752C223.003 101.827 221.766 96.6213 221.766 90.136C221.766 86.296 222.235 81.3893 223.174 75.416C224.198 69.3573 225.478 63.7253 227.014 58.52C227.782 55.7893 228.806 53.912 230.086 52.888C231.366 51.864 233.414 51.352 236.23 51.352C240.582 51.352 242.758 52.8027 242.758 55.704C242.758 57.8373 241.947 62.7867 240.326 70.552C238.278 79.9387 237.254 86.296 237.254 89.624C237.254 92.184 237.595 94.1467 238.278 95.512C238.961 96.8773 240.113 97.56 241.734 97.56C243.27 97.56 245.19 96.4933 247.494 94.36C249.798 92.2267 252.87 88.856 256.71 84.248C257.734 83.0533 258.886 82.456 260.166 82.456C261.275 82.456 262.129 82.968 262.726 83.992C263.409 85.016 263.75 86.424 263.75 88.216C263.75 91.6293 262.939 94.2747 261.318 96.152C252.87 106.477 244.977 111.64 237.638 111.64ZM277.202 114.456C272.765 114.456 269.351 113.432 266.962 111.384C264.658 109.336 263.506 107.032 263.506 104.472C263.506 102.253 264.317 100.333 265.938 98.712C267.559 97.0907 269.949 96.28 273.106 96.28C274.215 96.28 275.495 96.408 276.946 96.664C278.482 96.8347 279.634 96.9627 280.402 97.048C280.317 94.8293 279.805 92.7387 278.866 90.776C278.013 88.8133 276.903 86.936 275.538 85.144C274.173 83.2667 272.893 81.6453 271.698 80.28C269.053 85.3147 266.407 89.496 263.762 92.824C261.202 96.152 258.386 99.3093 255.314 102.296C253.778 103.832 252.157 104.6 250.45 104.6C249.085 104.6 247.975 104.131 247.122 103.192C246.269 102.168 245.842 100.931 245.842 99.48C245.842 97.7733 246.439 96.1947 247.634 94.744L249.298 92.696C253.991 86.8933 257.533 82.1147 259.922 78.36C261.373 75.8853 263.079 72.6 265.042 68.504C267.005 64.3227 268.925 60.0133 270.802 55.576C272.423 51.8213 275.794 49.944 280.914 49.944C283.303 49.944 284.967 50.1573 285.906 50.584C286.845 51.0107 287.314 51.6933 287.314 52.632C287.314 53.144 287.143 53.9547 286.802 55.064C286.461 56.1733 285.991 57.2827 285.394 58.392C283.858 61.464 283.09 64.0667 283.09 66.2C283.09 67.48 283.517 68.888 284.37 70.424C285.309 71.96 286.717 73.88 288.594 76.184C291.325 79.768 293.373 82.84 294.738 85.4C296.189 87.8747 296.914 90.6053 296.914 93.592C296.914 94.4453 296.829 95.64 296.658 97.176C300.839 95.5547 305.746 91.2453 311.378 84.248C312.402 83.0533 313.554 82.456 314.834 82.456C315.943 82.456 316.797 82.968 317.394 83.992C318.077 85.016 318.418 86.424 318.418 88.216C318.418 91.4587 317.607 94.104 315.986 96.152C311.719 101.443 307.623 105.069 303.698 107.032C299.858 108.909 295.079 109.933 289.362 110.104C285.949 113.005 281.895 114.456 277.202 114.456ZM322.739 111.64C317.875 111.64 313.907 109.72 310.835 105.88C307.848 102.04 306.355 97.0053 306.355 90.776C306.355 83.9493 307.934 77.5067 311.091 71.448C314.248 65.304 318.43 60.3973 323.635 56.728C328.926 52.9733 334.515 51.096 340.403 51.096C342.28 51.096 343.518 51.48 344.115 52.248C344.798 52.9307 345.352 54.2107 345.779 56.088C347.4 55.7467 349.192 55.576 351.155 55.576C353.203 55.576 354.782 56.088 355.891 57.112C357 58.136 357.555 59.5867 357.555 61.464C357.555 63.4267 357.128 66.84 356.275 71.704C355.336 76.9093 354.611 81.9013 354.099 86.68C353.587 91.3733 353.331 96.664 353.331 102.552C353.331 105.795 352.648 108.141 351.283 109.592C350.003 110.957 347.87 111.64 344.883 111.64C341.982 111.64 339.806 110.957 338.355 109.592C336.99 108.141 336.307 105.837 336.307 102.68L336.435 100.632C333.79 107.971 329.224 111.64 322.739 111.64ZM327.731 98.712C330.12 98.712 332.296 97.048 334.259 93.72C336.222 90.392 337.971 84.4613 339.507 75.928L341.939 63C338.44 63.0853 335.198 64.4507 332.211 67.096C329.224 69.656 326.835 73.0693 325.043 77.336C323.251 81.6027 322.355 86.1253 322.355 90.904C322.355 93.464 322.824 95.4267 323.763 96.792C324.787 98.072 326.11 98.712 327.731 98.712ZM424.071 111.64C420.914 111.64 418.652 110.957 417.287 109.592C415.922 108.141 415.239 105.453 415.239 101.528C415.239 98.8827 415.495 95.6827 416.007 91.928C416.519 88.1733 417.415 82.4987 418.695 74.904C418.866 73.88 419.548 69.7413 420.743 62.488C421.938 55.1493 423.004 47.4693 423.943 39.448C424.796 32.6213 425.223 27.5013 425.223 24.088C425.223 20.248 423.815 18.328 420.999 18.328C418.866 18.328 416.178 19.48 412.935 21.784C409.778 24.0027 406.364 27.5867 402.695 32.536C401.5 34.1573 400.178 34.968 398.727 34.968C397.532 34.968 396.466 34.4133 395.527 33.304C394.674 32.1093 394.247 30.7867 394.247 29.336C394.247 27.8853 394.503 26.52 395.015 25.24C395.527 23.8747 396.466 22.2533 397.831 20.376C402.012 14.6587 406.663 10.264 411.783 7.19199C416.903 4.03466 422.279 2.45599 427.911 2.45599C432.604 2.45599 436.103 3.90666 438.407 6.808C440.796 9.70933 441.991 13.9333 441.991 19.48C441.991 24.4293 441.308 31.5973 439.943 40.984C444.21 28.3547 449.628 18.7973 456.199 12.312C462.77 5.74133 470.492 2.45599 479.367 2.45599C486.364 2.45599 491.612 4.46133 495.111 8.47199C498.695 12.3973 500.487 17.688 500.487 24.344C500.487 28.0987 499.932 32.664 498.823 38.04L491.015 74.648C490.162 78.9147 489.735 82.584 489.735 85.656C489.735 89.24 490.546 91.928 492.167 93.72C493.874 95.512 496.22 96.408 499.207 96.408C502.023 96.408 504.754 95.4693 507.399 93.592C510.13 91.7147 513.33 88.6 516.999 84.248C518.023 83.0533 519.175 82.456 520.455 82.456C521.564 82.456 522.418 82.968 523.015 83.992C523.698 85.016 524.039 86.424 524.039 88.216C524.039 91.544 523.228 94.1893 521.607 96.152C517.17 101.528 512.775 105.453 508.423 107.928C504.071 110.403 499.506 111.64 494.727 111.64C487.474 111.64 481.799 109.507 477.703 105.24C473.607 100.888 471.559 95.0853 471.559 87.832C471.559 85.016 471.772 81.944 472.199 78.616C472.711 75.288 473.522 71.064 474.631 65.944L479.751 42.52C479.922 41.752 480.22 40.3867 480.647 38.424C481.074 36.4613 481.415 34.6267 481.671 32.92C481.927 31.128 482.055 29.3787 482.055 27.672C482.055 24.9413 481.287 22.7653 479.751 21.144C478.215 19.5227 476.039 18.712 473.223 18.712C468.103 18.712 462.983 21.4427 457.863 26.904C452.743 32.3653 448.007 41.1973 443.655 53.4C439.303 65.5173 435.89 81.048 433.415 99.992C432.818 104.344 431.922 107.373 430.727 109.08C429.618 110.787 427.399 111.64 424.071 111.64ZM570.732 82.456C571.841 82.456 572.695 82.968 573.292 83.992C573.975 85.016 574.316 86.424 574.316 88.216C574.316 91.6293 573.505 94.2747 571.884 96.152C568.727 99.992 564.247 103.533 558.444 106.776C552.727 110.019 546.583 111.64 540.012 111.64C531.052 111.64 524.097 109.208 519.148 104.344C514.199 99.48 511.724 92.824 511.724 84.376C511.724 78.488 512.961 73.0267 515.436 67.992C517.911 62.872 521.324 58.8187 525.676 55.832C530.113 52.8453 535.105 51.352 540.652 51.352C545.601 51.352 549.569 52.8453 552.556 55.832C555.543 58.7333 557.036 62.7013 557.036 67.736C557.036 73.624 554.903 78.7013 550.636 82.968C546.455 87.1493 539.329 90.4773 529.26 92.952C531.393 96.8773 535.447 98.84 541.42 98.84C545.26 98.84 549.612 97.5173 554.476 94.872C559.425 92.1413 563.692 88.6 567.276 84.248C568.3 83.0533 569.452 82.456 570.732 82.456ZM538.476 63.896C535.319 63.896 532.631 65.7307 530.412 69.4C528.279 73.0693 527.212 77.5067 527.212 82.712V82.968C532.247 81.7733 536.215 79.9813 539.116 77.592C542.017 75.2027 543.468 72.4293 543.468 69.272C543.468 67.6507 542.999 66.3707 542.06 65.432C541.207 64.408 540.012 63.896 538.476 63.896ZM579.013 111.64C573.722 111.64 569.498 109.72 566.341 105.88C563.184 102.04 561.605 97.0053 561.605 90.776C561.605 83.9493 563.184 77.5067 566.341 71.448C569.498 65.304 573.68 60.3973 578.885 56.728C584.176 52.9733 589.765 51.096 595.653 51.096C597.53 51.096 598.768 51.48 599.365 52.248C600.048 52.9307 600.602 54.2107 601.029 56.088C602.821 55.7467 604.698 55.576 606.661 55.576C610.842 55.576 612.933 57.0693 612.933 60.056C612.933 61.848 612.293 66.1147 611.013 72.856C609.05 82.6693 608.069 89.496 608.069 93.336C608.069 94.616 608.368 95.64 608.965 96.408C609.648 97.176 610.501 97.56 611.525 97.56C613.146 97.56 615.109 96.536 617.413 94.488C619.717 92.3547 622.832 88.9413 626.757 84.248C627.781 83.0533 628.933 82.456 630.213 82.456C631.322 82.456 632.176 82.968 632.773 83.992C633.456 85.016 633.797 86.424 633.797 88.216C633.797 91.6293 632.986 94.2747 631.365 96.152C627.866 100.504 624.154 104.173 620.229 107.16C616.304 110.147 612.506 111.64 608.837 111.64C606.021 111.64 603.418 110.701 601.029 108.824C598.725 106.861 596.976 104.216 595.781 100.888C591.344 108.056 585.754 111.64 579.013 111.64ZM583.621 98.712C585.498 98.712 587.29 97.6027 588.997 95.384C590.704 93.1653 591.941 90.2213 592.709 86.552L597.445 63C593.861 63.0853 590.533 64.4507 587.461 67.096C584.474 69.656 582.085 73.0693 580.293 77.336C578.501 81.6027 577.605 86.1253 577.605 90.904C577.605 93.5493 578.117 95.512 579.141 96.792C580.25 98.072 581.744 98.712 583.621 98.712ZM688.93 82.712C690.039 82.712 690.893 83.2667 691.49 84.376C692.173 85.4 692.514 86.7227 692.514 88.344C692.514 90.3067 692.215 91.8427 691.618 92.952C691.021 94.0613 690.082 95.0427 688.802 95.896C681.463 100.845 676.087 104.515 672.674 106.904L664.482 112.408C661.239 130.072 656.973 143.939 651.682 154.008C646.477 164.163 639.821 169.24 631.714 169.24C627.362 169.24 623.821 167.875 621.09 165.144C618.359 162.499 616.994 159 616.994 154.648C616.994 148.589 619.383 142.061 624.162 135.064C628.941 128.152 637.901 119.619 651.042 109.464L651.81 104.472C650.359 106.776 648.439 108.568 646.05 109.848C643.746 111.043 641.442 111.64 639.138 111.64C633.847 111.64 629.623 109.72 626.466 105.88C623.309 102.04 621.73 97.0053 621.73 90.776C621.73 83.9493 623.309 77.5067 626.466 71.448C629.623 65.304 633.805 60.3973 639.01 56.728C644.301 52.9733 649.89 51.096 655.778 51.096C657.655 51.096 658.893 51.48 659.49 52.248C660.173 52.9307 660.727 54.2107 661.154 56.088C662.775 55.7467 664.653 55.576 666.786 55.576C668.919 55.576 670.413 55.9173 671.266 56.6C672.205 57.1973 672.674 58.4347 672.674 60.312C672.674 61.336 672.631 62.1467 672.546 62.744C672.205 65.3893 671.138 72.088 669.346 82.84C669.005 84.888 668.621 87.1493 668.194 89.624C667.853 92.0133 667.469 94.5733 667.042 97.304C673.613 92.184 679.927 87.6613 685.986 83.736C687.095 83.0533 688.077 82.712 688.93 82.712ZM643.746 98.712C645.709 98.712 647.586 97.5173 649.378 95.128C651.17 92.7387 652.45 89.3253 653.218 84.888L657.314 63C653.815 63.0853 650.573 64.4507 647.586 67.096C644.599 69.656 642.21 73.0693 640.418 77.336C638.626 81.6027 637.73 86.1253 637.73 90.904C637.73 93.5493 638.242 95.512 639.266 96.792C640.375 98.072 641.869 98.712 643.746 98.712ZM633.122 156.824C635.255 156.824 637.645 154.264 640.29 149.144C643.021 144.024 645.623 135.875 648.098 124.696C641.527 130.328 636.791 135.405 633.89 139.928C630.989 144.451 629.538 148.419 629.538 151.832C629.538 153.283 629.794 154.477 630.306 155.416C630.903 156.355 631.842 156.824 633.122 156.824ZM696.581 111.64C692.57 111.64 689.328 110.019 686.853 106.776C684.464 103.448 683.269 98.8827 683.269 93.08C683.269 86.68 683.696 80.8347 684.549 75.544C685.402 70.168 686.81 64.4933 688.773 58.52C689.626 55.96 690.821 54.1253 692.357 53.016C693.893 51.9067 696.325 51.352 699.653 51.352C701.53 51.352 702.81 51.6507 703.493 52.248C704.261 52.8453 704.645 53.7413 704.645 54.936C704.645 55.6187 704.176 57.9227 703.237 61.848C702.384 65.0053 701.701 67.864 701.189 70.424C699.482 79.384 698.629 85.3573 698.629 88.344C698.629 90.136 698.842 91.416 699.269 92.184C699.696 92.8667 700.378 93.208 701.317 93.208C702.597 93.208 704.218 91.928 706.181 89.368C708.144 86.7227 710.192 82.7973 712.325 77.592C714.544 72.3013 716.634 65.944 718.597 58.52C719.28 55.96 720.304 54.1253 721.669 53.016C723.12 51.9067 725.253 51.352 728.069 51.352C729.946 51.352 731.269 51.864 732.037 52.888C732.89 53.8267 733.317 55.2773 733.317 57.24C733.317 59.3733 733.146 61.7627 732.805 64.408C732.464 66.968 732.08 69.6133 731.653 72.344C730.8 77.8053 730.117 82.7973 729.605 87.32C729.093 91.7573 728.837 96.8347 728.837 102.552C728.837 105.795 728.154 108.141 726.789 109.592C725.509 110.957 723.376 111.64 720.389 111.64C717.232 111.64 715.013 110.829 713.733 109.208C712.538 107.501 711.941 104.259 711.941 99.48C711.941 98.5413 712.026 96.4507 712.197 93.208C710.746 99.1813 708.57 103.747 705.669 106.904C702.853 110.061 699.824 111.64 696.581 111.64Z" fill="#FCEC5C"/>
</svg>
