<svg width="400" height="400" viewBox="0 0 1315 180" fill="none" xmlns="http://www.w3.org/2000/svg">
<path d="M34.424 121.64C29.4747 121.64 23.8853 121.213 17.656 120.36C14.2427 119.933 11.896 119.037 10.616 117.672C9.336 116.307 8.78133 114.088 8.952 111.016C9.54933 102.568 10.9573 92.1573 13.176 79.784C15.3947 67.3253 18.0827 55.336 21.24 43.816C21.8373 41.6827 23.032 40.1893 24.824 39.336C26.616 38.4827 28.9627 38.056 31.864 38.056C37.0693 38.056 39.672 39.5067 39.672 42.408C39.672 43.6027 39.416 44.968 38.904 46.504C36.6853 53.3307 34.4667 62.504 32.248 74.024C30.0293 85.4587 28.4507 96.3813 27.512 106.792C30.072 107.048 32.9733 107.176 36.216 107.176C51.1493 107.176 62.2853 102.653 69.624 93.608C77.048 84.5627 80.76 72.488 80.76 57.384C80.76 47.2293 77.8587 39.3787 72.056 33.832C66.2533 28.2853 58.0613 25.512 47.48 25.512C40.6533 25.512 33.8693 26.5787 27.128 28.712C20.472 30.8453 14.456 33.6613 9.08 37.16C7.97067 37.928 6.776 38.312 5.496 38.312C4.04533 38.312 2.89333 37.7147 2.04 36.52C1.18667 35.24 0.76 33.704 0.76 31.912C0.76 29.864 1.10133 28.2 1.784 26.92C2.46667 25.5547 3.61867 24.3173 5.24 23.208C11.128 19.1973 18.04 16.168 25.976 14.12C33.912 11.9867 41.5493 10.92 48.888 10.92C59.2987 10.92 68.3013 12.7547 75.896 16.424C83.4907 20.008 89.336 25.2987 93.432 32.296C97.528 39.2933 99.576 47.7413 99.576 57.64C99.576 70.5253 97.016 81.7893 91.896 91.432C86.776 100.989 79.3093 108.413 69.496 113.704C59.6827 118.995 47.992 121.64 34.424 121.64ZM165.232 92.456C166.341 92.456 167.195 92.968 167.792 93.992C168.475 95.016 168.816 96.424 168.816 98.216C168.816 101.629 168.005 104.275 166.384 106.152C163.227 109.992 158.747 113.533 152.944 116.776C147.227 120.019 141.083 121.64 134.512 121.64C125.552 121.64 118.597 119.208 113.648 114.344C108.699 109.48 106.224 102.824 106.224 94.376C106.224 88.488 107.461 83.0267 109.936 77.992C112.411 72.872 115.824 68.8187 120.176 65.832C124.613 62.8453 129.605 61.352 135.152 61.352C140.101 61.352 144.069 62.8453 147.056 65.832C150.043 68.7333 151.536 72.7013 151.536 77.736C151.536 83.624 149.403 88.7013 145.136 92.968C140.955 97.1493 133.829 100.477 123.76 102.952C125.893 106.877 129.947 108.84 135.92 108.84C139.76 108.84 144.112 107.517 148.976 104.872C153.925 102.141 158.192 98.6 161.776 94.248C162.8 93.0533 163.952 92.456 165.232 92.456ZM132.976 73.896C129.819 73.896 127.131 75.7307 124.912 79.4C122.779 83.0693 121.712 87.5067 121.712 92.712V92.968C126.747 91.7733 130.715 89.9813 133.616 87.592C136.517 85.2027 137.968 82.4293 137.968 79.272C137.968 77.6507 137.499 76.3707 136.56 75.432C135.707 74.408 134.512 73.896 132.976 73.896ZM167.482 121.64C164.239 121.64 161.935 119.933 160.57 116.52C159.29 113.107 158.65 107.645 158.65 100.136C158.65 89.0427 160.229 78.504 163.386 68.52C164.154 66.0453 165.391 64.2533 167.098 63.144C168.89 61.9493 171.365 61.352 174.522 61.352C176.229 61.352 177.423 61.5653 178.106 61.992C178.789 62.4187 179.13 63.2293 179.13 64.424C179.13 65.7893 178.49 68.8613 177.21 73.64C176.357 77.0533 175.674 80.04 175.162 82.6C174.65 85.16 174.223 88.3173 173.882 92.072C176.698 84.7333 179.855 78.76 183.354 74.152C186.853 69.544 190.266 66.2587 193.594 64.296C197.007 62.3333 200.122 61.352 202.938 61.352C208.485 61.352 211.258 64.1253 211.258 69.672C211.258 73 210.319 79.016 208.442 87.72C206.821 95.144 206.01 100.051 206.01 102.44C206.01 105.853 207.247 107.56 209.722 107.56C211.429 107.56 213.434 106.536 215.738 104.488C218.127 102.355 221.285 98.9413 225.21 94.248C226.234 93.0533 227.386 92.456 228.666 92.456C229.775 92.456 230.629 92.968 231.226 93.992C231.909 95.016 232.25 96.424 232.25 98.216C232.25 101.629 231.439 104.275 229.818 106.152C226.149 110.675 222.181 114.387 217.914 117.288C213.733 120.189 208.954 121.64 203.578 121.64C199.226 121.64 195.941 120.403 193.722 117.928C191.503 115.368 190.394 111.699 190.394 106.92C190.394 104.531 190.991 100.264 192.186 94.12C193.295 88.744 193.85 85.032 193.85 82.984C193.85 81.6187 193.381 80.936 192.442 80.936C191.333 80.936 189.754 82.3867 187.706 85.288C185.743 88.104 183.695 91.8587 181.562 96.552C179.514 101.245 177.85 106.195 176.57 111.4C175.631 115.411 174.522 118.141 173.242 119.592C172.047 120.957 170.127 121.64 167.482 121.64ZM238.662 52.904C235.078 52.904 232.39 52.0933 230.598 50.472C228.806 48.7653 227.91 46.4187 227.91 43.432C227.91 40.4453 229.062 37.9707 231.366 36.008C233.755 33.96 236.699 32.936 240.198 32.936C243.355 32.936 245.915 33.704 247.878 35.24C249.841 36.776 250.822 38.952 250.822 41.768C250.822 45.1813 249.713 47.912 247.494 49.96C245.275 51.9227 242.331 52.904 238.662 52.904ZM237.638 121.64C232.091 121.64 228.038 119.677 225.478 115.752C223.003 111.827 221.766 106.621 221.766 100.136C221.766 96.296 222.235 91.3893 223.174 85.416C224.198 79.3573 225.478 73.7253 227.014 68.52C227.782 65.7893 228.806 63.912 230.086 62.888C231.366 61.864 233.414 61.352 236.23 61.352C240.582 61.352 242.758 62.8027 242.758 65.704C242.758 67.8373 241.947 72.7867 240.326 80.552C238.278 89.9387 237.254 96.296 237.254 99.624C237.254 102.184 237.595 104.147 238.278 105.512C238.961 106.877 240.113 107.56 241.734 107.56C243.27 107.56 245.19 106.493 247.494 104.36C249.798 102.227 252.87 98.856 256.71 94.248C257.734 93.0533 258.886 92.456 260.166 92.456C261.275 92.456 262.129 92.968 262.726 93.992C263.409 95.016 263.75 96.424 263.75 98.216C263.75 101.629 262.939 104.275 261.318 106.152C252.87 116.477 244.977 121.64 237.638 121.64ZM277.202 124.456C272.765 124.456 269.351 123.432 266.962 121.384C264.658 119.336 263.506 117.032 263.506 114.472C263.506 112.253 264.317 110.333 265.938 108.712C267.559 107.091 269.949 106.28 273.106 106.28C274.215 106.28 275.495 106.408 276.946 106.664C278.482 106.835 279.634 106.963 280.402 107.048C280.317 104.829 279.805 102.739 278.866 100.776C278.013 98.8133 276.903 96.936 275.538 95.144C274.173 93.2667 272.893 91.6453 271.698 90.28C269.053 95.3147 266.407 99.496 263.762 102.824C261.202 106.152 258.386 109.309 255.314 112.296C253.778 113.832 252.157 114.6 250.45 114.6C249.085 114.6 247.975 114.131 247.122 113.192C246.269 112.168 245.842 110.931 245.842 109.48C245.842 107.773 246.439 106.195 247.634 104.744L249.298 102.696C253.991 96.8933 257.533 92.1147 259.922 88.36C261.373 85.8853 263.079 82.6 265.042 78.504C267.005 74.3227 268.925 70.0133 270.802 65.576C272.423 61.8213 275.794 59.944 280.914 59.944C283.303 59.944 284.967 60.1573 285.906 60.584C286.845 61.0107 287.314 61.6933 287.314 62.632C287.314 63.144 287.143 63.9547 286.802 65.064C286.461 66.1733 285.991 67.2827 285.394 68.392C283.858 71.464 283.09 74.0667 283.09 76.2C283.09 77.48 283.517 78.888 284.37 80.424C285.309 81.96 286.717 83.88 288.594 86.184C291.325 89.768 293.373 92.84 294.738 95.4C296.189 97.8747 296.914 100.605 296.914 103.592C296.914 104.445 296.829 105.64 296.658 107.176C300.839 105.555 305.746 101.245 311.378 94.248C312.402 93.0533 313.554 92.456 314.834 92.456C315.943 92.456 316.797 92.968 317.394 93.992C318.077 95.016 318.418 96.424 318.418 98.216C318.418 101.459 317.607 104.104 315.986 106.152C311.719 111.443 307.623 115.069 303.698 117.032C299.858 118.909 295.079 119.933 289.362 120.104C285.949 123.005 281.895 124.456 277.202 124.456ZM322.739 121.64C317.875 121.64 313.907 119.72 310.835 115.88C307.848 112.04 306.355 107.005 306.355 100.776C306.355 93.9493 307.934 87.5067 311.091 81.448C314.248 75.304 318.43 70.3973 323.635 66.728C328.926 62.9733 334.515 61.096 340.403 61.096C342.28 61.096 343.518 61.48 344.115 62.248C344.798 62.9307 345.352 64.2107 345.779 66.088C347.4 65.7467 349.192 65.576 351.155 65.576C353.203 65.576 354.782 66.088 355.891 67.112C357 68.136 357.555 69.5867 357.555 71.464C357.555 73.4267 357.128 76.84 356.275 81.704C355.336 86.9093 354.611 91.9013 354.099 96.68C353.587 101.373 353.331 106.664 353.331 112.552C353.331 115.795 352.648 118.141 351.283 119.592C350.003 120.957 347.87 121.64 344.883 121.64C341.982 121.64 339.806 120.957 338.355 119.592C336.99 118.141 336.307 115.837 336.307 112.68L336.435 110.632C333.79 117.971 329.224 121.64 322.739 121.64ZM327.731 108.712C330.12 108.712 332.296 107.048 334.259 103.72C336.222 100.392 337.971 94.4613 339.507 85.928L341.939 73C338.44 73.0853 335.198 74.4507 332.211 77.096C329.224 79.656 326.835 83.0693 325.043 87.336C323.251 91.6027 322.355 96.1253 322.355 100.904C322.355 103.464 322.824 105.427 323.763 106.792C324.787 108.072 326.11 108.712 327.731 108.712ZM408.455 89.512C406.407 89.6827 404.743 89.0853 403.463 87.72C402.268 86.3547 401.671 84.4347 401.671 81.96C401.671 79.656 402.226 77.9493 403.335 76.84C404.53 75.7307 406.236 75.0907 408.455 74.92L434.695 72.36C436.828 72.1893 438.45 72.744 439.559 74.024C440.754 75.2187 441.351 77.0107 441.351 79.4C441.351 84.008 439.132 86.5253 434.695 86.952L408.455 89.512ZM594.051 92.712C595.16 92.712 596.014 93.2667 596.611 94.376C597.294 95.4 597.635 96.7227 597.635 98.344C597.635 100.307 597.336 101.843 596.739 102.952C596.142 104.061 595.203 105.043 593.923 105.896C588.888 109.224 580.867 114.685 569.859 122.28C566.531 139.944 562.222 153.853 556.931 164.008C551.64 174.163 544.942 179.24 536.835 179.24C532.483 179.24 528.942 177.875 526.211 175.144C523.48 172.499 522.115 169 522.115 164.648C522.115 160.637 523.011 156.584 524.803 152.488C526.595 148.392 529.923 143.656 534.787 138.28C539.736 132.904 546.691 126.76 555.651 119.848L556.035 117.416C549.294 120.232 542.68 121.64 536.195 121.64C526.638 121.64 518.232 119.805 510.979 116.136C503.726 112.381 498.094 107.091 494.083 100.264C490.072 93.4373 488.067 85.5013 488.067 76.456C488.067 63.8267 490.456 52.6907 495.235 43.048C500.014 33.32 506.584 25.8107 514.947 20.52C523.395 15.144 532.824 12.456 543.235 12.456C553.219 12.456 560.686 14.8027 565.635 19.496C570.67 24.104 573.187 30.248 573.187 37.928C573.187 42.9627 572.248 47.016 570.371 50.088C568.579 53.0747 565.976 54.568 562.563 54.568C560.259 54.568 558.382 54.0133 556.931 52.904C555.566 51.7947 554.883 50.2587 554.883 48.296C554.883 47.4427 555.054 45.992 555.395 43.944C555.907 41.5547 556.163 39.6773 556.163 38.312C556.163 34.728 555.054 31.9547 552.835 29.992C550.702 28.0293 547.075 27.048 541.955 27.048C535.726 27.048 529.923 28.84 524.547 32.424C519.256 36.008 514.99 41.384 511.747 48.552C508.504 55.6347 506.883 64.168 506.883 74.152C506.883 84.392 509.656 92.328 515.203 97.96C520.835 103.507 528.942 106.28 539.523 106.28C545.411 106.28 551.555 104.957 557.955 102.312L559.747 86.696H546.691C544.302 86.696 542.467 86.1413 541.187 85.032C539.907 83.8373 539.267 81.9173 539.267 79.272C539.267 76.8827 539.907 75.0053 541.187 73.64C542.467 72.2747 544.174 71.592 546.307 71.592H570.243C572.12 71.592 573.656 72.232 574.851 73.512C576.131 74.7067 576.643 76.456 576.387 78.76C576.131 81.4907 575.278 87.6773 573.827 97.32L572.419 107.048C579.246 101.928 585.475 97.4907 591.107 93.736C592.216 93.0533 593.198 92.712 594.051 92.712ZM538.243 166.824C540.462 166.824 542.894 164.307 545.539 159.272C548.184 154.237 550.659 146.131 552.963 134.952C546.478 140.499 541.784 145.491 538.883 149.928C536.067 154.451 534.659 158.419 534.659 161.832C534.659 165.16 535.854 166.824 538.243 166.824ZM604.263 121.64C598.972 121.64 594.748 119.72 591.591 115.88C588.434 112.04 586.855 107.005 586.855 100.776C586.855 93.9493 588.434 87.5067 591.591 81.448C594.748 75.304 598.93 70.3973 604.135 66.728C609.426 62.9733 615.015 61.096 620.903 61.096C622.78 61.096 624.018 61.48 624.615 62.248C625.298 62.9307 625.852 64.2107 626.279 66.088C628.071 65.7467 629.948 65.576 631.911 65.576C636.092 65.576 638.183 67.0693 638.183 70.056C638.183 71.848 637.543 76.1147 636.263 82.856C634.3 92.6693 633.319 99.496 633.319 103.336C633.319 104.616 633.618 105.64 634.215 106.408C634.898 107.176 635.751 107.56 636.775 107.56C638.396 107.56 640.359 106.536 642.663 104.488C644.967 102.355 648.082 98.9413 652.007 94.248C653.031 93.0533 654.183 92.456 655.463 92.456C656.572 92.456 657.426 92.968 658.023 93.992C658.706 95.016 659.047 96.424 659.047 98.216C659.047 101.629 658.236 104.275 656.615 106.152C653.116 110.504 649.404 114.173 645.479 117.16C641.554 120.147 637.756 121.64 634.087 121.64C631.271 121.64 628.668 120.701 626.279 118.824C623.975 116.861 622.226 114.216 621.031 110.888C616.594 118.056 611.004 121.64 604.263 121.64ZM608.871 108.712C610.748 108.712 612.54 107.603 614.247 105.384C615.954 103.165 617.191 100.221 617.959 96.552L622.695 73C619.111 73.0853 615.783 74.4507 612.711 77.096C609.724 79.656 607.335 83.0693 605.543 87.336C603.751 91.6027 602.855 96.1253 602.855 100.904C602.855 103.549 603.367 105.512 604.391 106.792C605.5 108.072 606.994 108.712 608.871 108.712ZM716.74 81.704C717.849 81.704 718.703 82.2587 719.3 83.368C719.897 84.4773 720.196 85.8853 720.196 87.592C720.196 89.7253 719.897 91.3893 719.3 92.584C718.703 93.6933 717.764 94.4613 716.484 94.888C711.364 96.68 705.732 97.704 699.588 97.96C697.881 105.043 694.639 110.76 689.86 115.112C685.167 119.464 679.961 121.64 674.244 121.64C665.625 121.64 659.353 118.355 655.428 111.784C651.503 105.213 649.54 95.6987 649.54 83.24C649.54 72.232 650.905 60.2853 653.636 47.4C656.367 34.4293 660.335 23.4213 665.54 14.376C670.831 5.24533 677.103 0.679993 684.356 0.679993C688.281 0.679993 691.439 2.38666 693.828 5.8C696.217 9.12799 697.412 13.48 697.412 18.856C697.412 25.8533 696.089 32.808 693.444 39.72C690.799 46.632 686.404 53.8853 680.26 61.48C685.977 61.9067 690.628 64.296 694.212 68.648C697.796 72.9147 699.929 78.2053 700.612 84.52C704.623 84.264 709.401 83.4107 714.948 81.96C715.46 81.7893 716.057 81.704 716.74 81.704ZM681.412 13.352C679.705 13.352 677.828 15.912 675.78 21.032C673.817 26.0667 671.983 32.936 670.276 41.64C668.569 50.344 667.289 59.8587 666.436 70.184C672.068 59.8587 676.548 50.7707 679.876 42.92C683.289 34.984 684.996 27.944 684.996 21.8C684.996 19.0693 684.655 16.9787 683.972 15.528C683.375 14.0773 682.521 13.352 681.412 13.352ZM674.756 108.072C677.401 108.072 679.748 106.963 681.796 104.744C683.844 102.525 685.209 99.3253 685.892 95.144C683.247 93.352 681.199 91.0053 679.748 88.104C678.383 85.2027 677.7 82.1307 677.7 78.888C677.7 77.6933 677.871 76.072 678.212 74.024H677.828C674.329 74.024 671.385 75.7733 668.996 79.272C666.692 82.6853 665.54 87.2933 665.54 93.096C665.54 97.96 666.436 101.672 668.228 104.232C670.105 106.792 672.281 108.072 674.756 108.072ZM718.232 121.64C714.989 121.64 712.685 119.933 711.32 116.52C710.04 113.107 709.4 107.645 709.4 100.136C709.4 89.0427 710.979 78.504 714.136 68.52C714.904 66.0453 716.141 64.2533 717.848 63.144C719.64 61.9493 722.115 61.352 725.272 61.352C726.979 61.352 728.173 61.5653 728.856 61.992C729.539 62.4187 729.88 63.2293 729.88 64.424C729.88 65.7893 729.24 68.8613 727.96 73.64C727.107 77.0533 726.424 80.04 725.912 82.6C725.4 85.16 724.973 88.3173 724.632 92.072C727.448 84.7333 730.605 78.76 734.104 74.152C737.603 69.544 741.016 66.2587 744.344 64.296C747.757 62.3333 750.872 61.352 753.688 61.352C759.235 61.352 762.008 64.1253 762.008 69.672C762.008 70.7813 761.624 73.4693 760.856 77.736C760.173 81.1493 759.832 83.2827 759.832 84.136C759.832 87.1227 760.899 88.616 763.032 88.616C765.421 88.616 768.493 86.7387 772.248 82.984C773.357 81.8747 774.509 81.32 775.704 81.32C776.813 81.32 777.667 81.832 778.264 82.856C778.947 83.7947 779.288 85.0747 779.288 86.696C779.288 89.8533 778.435 92.328 776.728 94.12C774.339 96.5947 771.523 98.728 768.28 100.52C765.123 102.227 761.752 103.08 758.168 103.08C753.645 103.08 750.189 101.928 747.8 99.624C745.496 97.32 744.344 94.2053 744.344 90.28C744.344 89 744.472 87.72 744.728 86.44C744.899 84.7333 744.984 83.5813 744.984 82.984C744.984 81.6187 744.515 80.936 743.576 80.936C742.296 80.936 740.589 82.3867 738.456 85.288C736.408 88.104 734.36 91.8587 732.312 96.552C730.264 101.245 728.6 106.195 727.32 111.4C726.381 115.411 725.272 118.141 723.992 119.592C722.797 120.957 720.877 121.64 718.232 121.64ZM784.162 52.904C780.578 52.904 777.89 52.0933 776.098 50.472C774.306 48.7653 773.41 46.4187 773.41 43.432C773.41 40.4453 774.562 37.9707 776.866 36.008C779.255 33.96 782.199 32.936 785.698 32.936C788.855 32.936 791.415 33.704 793.378 35.24C795.341 36.776 796.322 38.952 796.322 41.768C796.322 45.1813 795.213 47.912 792.994 49.96C790.775 51.9227 787.831 52.904 784.162 52.904ZM783.138 121.64C777.591 121.64 773.538 119.677 770.978 115.752C768.503 111.827 767.266 106.621 767.266 100.136C767.266 96.296 767.735 91.3893 768.674 85.416C769.698 79.3573 770.978 73.7253 772.514 68.52C773.282 65.7893 774.306 63.912 775.586 62.888C776.866 61.864 778.914 61.352 781.73 61.352C786.082 61.352 788.258 62.8027 788.258 65.704C788.258 67.8373 787.447 72.7867 785.826 80.552C783.778 89.9387 782.754 96.296 782.754 99.624C782.754 102.184 783.095 104.147 783.778 105.512C784.461 106.877 785.613 107.56 787.234 107.56C788.77 107.56 790.69 106.493 792.994 104.36C795.298 102.227 798.37 98.856 802.21 94.248C803.234 93.0533 804.386 92.456 805.666 92.456C806.775 92.456 807.629 92.968 808.226 93.992C808.909 95.016 809.25 96.424 809.25 98.216C809.25 101.629 808.439 104.275 806.818 106.152C798.37 116.477 790.477 121.64 783.138 121.64ZM855.982 92.456C857.091 92.456 857.945 92.968 858.542 93.992C859.225 95.016 859.566 96.424 859.566 98.216C859.566 101.629 858.755 104.275 857.134 106.152C853.977 109.992 849.497 113.533 843.694 116.776C837.977 120.019 831.833 121.64 825.262 121.64C816.302 121.64 809.347 119.208 804.398 114.344C799.449 109.48 796.974 102.824 796.974 94.376C796.974 88.488 798.211 83.0267 800.686 77.992C803.161 72.872 806.574 68.8187 810.926 65.832C815.363 62.8453 820.355 61.352 825.902 61.352C830.851 61.352 834.819 62.8453 837.806 65.832C840.793 68.7333 842.286 72.7013 842.286 77.736C842.286 83.624 840.153 88.7013 835.886 92.968C831.705 97.1493 824.579 100.477 814.51 102.952C816.643 106.877 820.697 108.84 826.67 108.84C830.51 108.84 834.862 107.517 839.726 104.872C844.675 102.141 848.942 98.6 852.526 94.248C853.55 93.0533 854.702 92.456 855.982 92.456ZM823.726 73.896C820.569 73.896 817.881 75.7307 815.662 79.4C813.529 83.0693 812.462 87.5067 812.462 92.712V92.968C817.497 91.7733 821.465 89.9813 824.366 87.592C827.267 85.2027 828.718 82.4293 828.718 79.272C828.718 77.6507 828.249 76.3707 827.31 75.432C826.457 74.408 825.262 73.896 823.726 73.896ZM897.656 92.456C898.765 92.456 899.619 92.968 900.216 93.992C900.899 95.016 901.24 96.424 901.24 98.216C901.24 101.629 900.429 104.275 898.808 106.152C895.139 110.675 891.128 114.387 886.776 117.288C882.509 120.189 877.645 121.64 872.184 121.64C864.675 121.64 859.085 118.227 855.416 111.4C851.832 104.573 850.04 95.7413 850.04 84.904C850.04 74.4933 851.363 62.632 854.008 49.32C856.739 36.008 860.707 24.5733 865.912 15.016C871.203 5.45866 877.475 0.679993 884.728 0.679993C888.824 0.679993 892.024 2.59999 894.328 6.43999C896.717 10.1947 897.912 15.6133 897.912 22.696C897.912 32.8507 895.096 44.6267 889.464 58.024C883.832 71.4213 876.195 84.6907 866.552 97.832C867.149 101.331 868.131 103.848 869.496 105.384C870.861 106.835 872.653 107.56 874.872 107.56C878.371 107.56 881.443 106.579 884.088 104.616C886.733 102.568 890.104 99.112 894.2 94.248C895.224 93.0533 896.376 92.456 897.656 92.456ZM881.912 13.352C879.949 13.352 877.731 16.8933 875.256 23.976C872.781 31.0587 870.605 39.848 868.728 50.344C866.851 60.84 865.827 70.9093 865.656 80.552C871.715 70.568 876.536 60.584 880.12 50.6C883.704 40.5307 885.496 31.3573 885.496 23.08C885.496 16.5947 884.301 13.352 881.912 13.352ZM904.364 121.64C899.5 121.64 895.532 119.72 892.46 115.88C889.473 112.04 887.98 107.005 887.98 100.776C887.98 93.9493 889.559 87.5067 892.716 81.448C895.873 75.304 900.055 70.3973 905.26 66.728C910.551 62.9733 916.14 61.096 922.028 61.096C923.905 61.096 925.143 61.48 925.74 62.248C926.423 62.9307 926.977 64.2107 927.404 66.088C929.025 65.7467 930.817 65.576 932.78 65.576C934.828 65.576 936.407 66.088 937.516 67.112C938.625 68.136 939.18 69.5867 939.18 71.464C939.18 73.4267 938.753 76.84 937.9 81.704C936.961 86.9093 936.236 91.9013 935.724 96.68C935.212 101.373 934.956 106.664 934.956 112.552C934.956 115.795 934.273 118.141 932.908 119.592C931.628 120.957 929.495 121.64 926.508 121.64C923.607 121.64 921.431 120.957 919.98 119.592C918.615 118.141 917.932 115.837 917.932 112.68L918.06 110.632C915.415 117.971 910.849 121.64 904.364 121.64ZM909.356 108.712C911.745 108.712 913.921 107.048 915.884 103.72C917.847 100.392 919.596 94.4613 921.132 85.928L923.564 73C920.065 73.0853 916.823 74.4507 913.836 77.096C910.849 79.656 908.46 83.0693 906.668 87.336C904.876 91.6027 903.98 96.1253 903.98 100.904C903.98 103.464 904.449 105.427 905.388 106.792C906.412 108.072 907.735 108.712 909.356 108.712ZM1005.7 121.64C1002.54 121.64 1000.28 120.957 998.912 119.592C997.547 118.141 996.864 115.453 996.864 111.528C996.864 108.883 997.12 105.683 997.632 101.928C998.144 98.1733 999.04 92.4987 1000.32 84.904C1000.49 83.88 1001.17 79.7413 1002.37 72.488C1003.56 65.1493 1004.63 57.4693 1005.57 49.448C1006.42 42.6213 1006.85 37.5013 1006.85 34.088C1006.85 30.248 1005.44 28.328 1002.62 28.328C1000.49 28.328 997.803 29.48 994.56 31.784C991.403 34.0027 987.989 37.5867 984.32 42.536C983.125 44.1573 981.803 44.968 980.352 44.968C979.157 44.968 978.091 44.4133 977.152 43.304C976.299 42.1093 975.872 40.7867 975.872 39.336C975.872 37.8853 976.128 36.52 976.64 35.24C977.152 33.8747 978.091 32.2533 979.456 30.376C983.637 24.6587 988.288 20.264 993.408 17.192C998.528 14.0347 1003.9 12.456 1009.54 12.456C1014.23 12.456 1017.73 13.9067 1020.03 16.808C1022.42 19.7093 1023.62 23.9333 1023.62 29.48C1023.62 34.4293 1022.93 41.5973 1021.57 50.984C1025.83 38.3547 1031.25 28.7973 1037.82 22.312C1044.39 15.7413 1052.12 12.456 1060.99 12.456C1067.99 12.456 1073.24 14.4613 1076.74 18.472C1080.32 22.3973 1082.11 27.688 1082.11 34.344C1082.11 38.0987 1081.56 42.664 1080.45 48.04L1072.64 84.648C1071.79 88.9147 1071.36 92.584 1071.36 95.656C1071.36 99.24 1072.17 101.928 1073.79 103.72C1075.5 105.512 1077.85 106.408 1080.83 106.408C1083.65 106.408 1086.38 105.469 1089.02 103.592C1091.75 101.715 1094.95 98.6 1098.62 94.248C1099.65 93.0533 1100.8 92.456 1102.08 92.456C1103.19 92.456 1104.04 92.968 1104.64 93.992C1105.32 95.016 1105.66 96.424 1105.66 98.216C1105.66 101.544 1104.85 104.189 1103.23 106.152C1098.79 111.528 1094.4 115.453 1090.05 117.928C1085.7 120.403 1081.13 121.64 1076.35 121.64C1069.1 121.64 1063.42 119.507 1059.33 115.24C1055.23 110.888 1053.18 105.085 1053.18 97.832C1053.18 95.016 1053.4 91.944 1053.82 88.616C1054.34 85.288 1055.15 81.064 1056.26 75.944L1061.38 52.52C1061.55 51.752 1061.85 50.3867 1062.27 48.424C1062.7 46.4613 1063.04 44.6267 1063.3 42.92C1063.55 41.128 1063.68 39.3787 1063.68 37.672C1063.68 34.9413 1062.91 32.7653 1061.38 31.144C1059.84 29.5227 1057.66 28.712 1054.85 28.712C1049.73 28.712 1044.61 31.4427 1039.49 36.904C1034.37 42.3653 1029.63 51.1973 1025.28 63.4C1020.93 75.5173 1017.51 91.048 1015.04 109.992C1014.44 114.344 1013.55 117.373 1012.35 119.08C1011.24 120.787 1009.02 121.64 1005.7 121.64ZM1152.36 92.456C1153.47 92.456 1154.32 92.968 1154.92 93.992C1155.6 95.016 1155.94 96.424 1155.94 98.216C1155.94 101.629 1155.13 104.275 1153.51 106.152C1150.35 109.992 1145.87 113.533 1140.07 116.776C1134.35 120.019 1128.21 121.64 1121.64 121.64C1112.68 121.64 1105.72 119.208 1100.77 114.344C1095.82 109.48 1093.35 102.824 1093.35 94.376C1093.35 88.488 1094.59 83.0267 1097.06 77.992C1099.54 72.872 1102.95 68.8187 1107.3 65.832C1111.74 62.8453 1116.73 61.352 1122.28 61.352C1127.23 61.352 1131.19 62.8453 1134.18 65.832C1137.17 68.7333 1138.66 72.7013 1138.66 77.736C1138.66 83.624 1136.53 88.7013 1132.26 92.968C1128.08 97.1493 1120.95 100.477 1110.89 102.952C1113.02 106.877 1117.07 108.84 1123.05 108.84C1126.89 108.84 1131.24 107.517 1136.1 104.872C1141.05 102.141 1145.32 98.6 1148.9 94.248C1149.93 93.0533 1151.08 92.456 1152.36 92.456ZM1120.1 73.896C1116.94 73.896 1114.26 75.7307 1112.04 79.4C1109.9 83.0693 1108.84 87.5067 1108.84 92.712V92.968C1113.87 91.7733 1117.84 89.9813 1120.74 87.592C1123.64 85.2027 1125.09 82.4293 1125.09 79.272C1125.09 77.6507 1124.62 76.3707 1123.69 75.432C1122.83 74.408 1121.64 73.896 1120.1 73.896ZM1160.64 121.64C1155.35 121.64 1151.12 119.72 1147.97 115.88C1144.81 112.04 1143.23 107.005 1143.23 100.776C1143.23 93.9493 1144.81 87.5067 1147.97 81.448C1151.12 75.304 1155.3 70.3973 1160.51 66.728C1165.8 62.9733 1171.39 61.096 1177.28 61.096C1179.16 61.096 1180.39 61.48 1180.99 62.248C1181.67 62.9307 1182.23 64.2107 1182.65 66.088C1184.45 65.7467 1186.32 65.576 1188.29 65.576C1192.47 65.576 1194.56 67.0693 1194.56 70.056C1194.56 71.848 1193.92 76.1147 1192.64 82.856C1190.68 92.6693 1189.69 99.496 1189.69 103.336C1189.69 104.616 1189.99 105.64 1190.59 106.408C1191.27 107.176 1192.13 107.56 1193.15 107.56C1194.77 107.56 1196.73 106.536 1199.04 104.488C1201.34 102.355 1204.46 98.9413 1208.38 94.248C1209.41 93.0533 1210.56 92.456 1211.84 92.456C1212.95 92.456 1213.8 92.968 1214.4 93.992C1215.08 95.016 1215.42 96.424 1215.42 98.216C1215.42 101.629 1214.61 104.275 1212.99 106.152C1209.49 110.504 1205.78 114.173 1201.85 117.16C1197.93 120.147 1194.13 121.64 1190.46 121.64C1187.65 121.64 1185.04 120.701 1182.65 118.824C1180.35 116.861 1178.6 114.216 1177.41 110.888C1172.97 118.056 1167.38 121.64 1160.64 121.64ZM1165.25 108.712C1167.12 108.712 1168.92 107.603 1170.62 105.384C1172.33 103.165 1173.57 100.221 1174.33 96.552L1179.07 73C1175.49 73.0853 1172.16 74.4507 1169.09 77.096C1166.1 79.656 1163.71 83.0693 1161.92 87.336C1160.13 91.6027 1159.23 96.1253 1159.23 100.904C1159.23 103.549 1159.74 105.512 1160.77 106.792C1161.88 108.072 1163.37 108.712 1165.25 108.712ZM1270.56 92.712C1271.66 92.712 1272.52 93.2667 1273.12 94.376C1273.8 95.4 1274.14 96.7227 1274.14 98.344C1274.14 100.307 1273.84 101.843 1273.24 102.952C1272.65 104.061 1271.71 105.043 1270.43 105.896C1263.09 110.845 1257.71 114.515 1254.3 116.904L1246.11 122.408C1242.86 140.072 1238.6 153.939 1233.31 164.008C1228.1 174.163 1221.45 179.24 1213.34 179.24C1208.99 179.24 1205.45 177.875 1202.72 175.144C1199.98 172.499 1198.62 169 1198.62 164.648C1198.62 158.589 1201.01 152.061 1205.79 145.064C1210.57 138.152 1219.53 129.619 1232.67 119.464L1233.44 114.472C1231.98 116.776 1230.06 118.568 1227.68 119.848C1225.37 121.043 1223.07 121.64 1220.76 121.64C1215.47 121.64 1211.25 119.72 1208.09 115.88C1204.93 112.04 1203.36 107.005 1203.36 100.776C1203.36 93.9493 1204.93 87.5067 1208.09 81.448C1211.25 75.304 1215.43 70.3973 1220.64 66.728C1225.93 62.9733 1231.52 61.096 1237.4 61.096C1239.28 61.096 1240.52 61.48 1241.12 62.248C1241.8 62.9307 1242.35 64.2107 1242.78 66.088C1244.4 65.7467 1246.28 65.576 1248.41 65.576C1250.54 65.576 1252.04 65.9173 1252.89 66.6C1253.83 67.1973 1254.3 68.4347 1254.3 70.312C1254.3 71.336 1254.26 72.1467 1254.17 72.744C1253.83 75.3893 1252.76 82.088 1250.97 92.84C1250.63 94.888 1250.25 97.1493 1249.82 99.624C1249.48 102.013 1249.09 104.573 1248.67 107.304C1255.24 102.184 1261.55 97.6613 1267.61 93.736C1268.72 93.0533 1269.7 92.712 1270.56 92.712ZM1225.37 108.712C1227.33 108.712 1229.21 107.517 1231 105.128C1232.8 102.739 1234.08 99.3253 1234.84 94.888L1238.94 73C1235.44 73.0853 1232.2 74.4507 1229.21 77.096C1226.22 79.656 1223.84 83.0693 1222.04 87.336C1220.25 91.6027 1219.36 96.1253 1219.36 100.904C1219.36 103.549 1219.87 105.512 1220.89 106.792C1222 108.072 1223.49 108.712 1225.37 108.712ZM1214.75 166.824C1216.88 166.824 1219.27 164.264 1221.92 159.144C1224.65 154.024 1227.25 145.875 1229.72 134.696C1223.15 140.328 1218.42 145.405 1215.52 149.928C1212.61 154.451 1211.16 158.419 1211.16 161.832C1211.16 163.283 1211.42 164.477 1211.93 165.416C1212.53 166.355 1213.47 166.824 1214.75 166.824ZM1278.21 121.64C1274.2 121.64 1270.95 120.019 1268.48 116.776C1266.09 113.448 1264.89 108.883 1264.89 103.08C1264.89 96.68 1265.32 90.8347 1266.17 85.544C1267.03 80.168 1268.44 74.4933 1270.4 68.52C1271.25 65.96 1272.45 64.1253 1273.98 63.016C1275.52 61.9067 1277.95 61.352 1281.28 61.352C1283.16 61.352 1284.44 61.6507 1285.12 62.248C1285.89 62.8453 1286.27 63.7413 1286.27 64.936C1286.27 65.6187 1285.8 67.9227 1284.86 71.848C1284.01 75.0053 1283.33 77.864 1282.81 80.424C1281.11 89.384 1280.25 95.3573 1280.25 98.344C1280.25 100.136 1280.47 101.416 1280.89 102.184C1281.32 102.867 1282 103.208 1282.94 103.208C1284.22 103.208 1285.84 101.928 1287.81 99.368C1289.77 96.7227 1291.82 92.7973 1293.95 87.592C1296.17 82.3013 1298.26 75.944 1300.22 68.52C1300.9 65.96 1301.93 64.1253 1303.29 63.016C1304.74 61.9067 1306.88 61.352 1309.69 61.352C1311.57 61.352 1312.89 61.864 1313.66 62.888C1314.52 63.8267 1314.94 65.2773 1314.94 67.24C1314.94 69.3733 1314.77 71.7627 1314.43 74.408C1314.09 76.968 1313.7 79.6133 1313.28 82.344C1312.42 87.8053 1311.74 92.7973 1311.23 97.32C1310.72 101.757 1310.46 106.835 1310.46 112.552C1310.46 115.795 1309.78 118.141 1308.41 119.592C1307.13 120.957 1305 121.64 1302.01 121.64C1298.86 121.64 1296.64 120.829 1295.36 119.208C1294.16 117.501 1293.57 114.259 1293.57 109.48C1293.57 108.541 1293.65 106.451 1293.82 103.208C1292.37 109.181 1290.2 113.747 1287.29 116.904C1284.48 120.061 1281.45 121.64 1278.21 121.64Z" fill="#FCEC5C"/>
</svg>
