<svg width="1369" height="331" viewBox="0 0 1369 331" fill="none" xmlns="http://www.w3.org/2000/svg">
<path d="M68.247 26.448C68.247 31.9093 67.0523 37.0293 64.663 41.808C62.2737 46.5013 59.287 50.512 55.703 53.84C52.119 57.0827 47.895 60.0693 43.031 62.8C34.7537 67.3227 25.8363 70.7787 16.279 73.168C15.3403 80.848 14.871 87.376 14.871 92.752C14.871 100.944 16.4923 106.789 19.735 110.288C17.0897 113.36 14.1457 114.896 10.903 114.896C4.247 114.896 0.919001 109.264 0.919001 98C0.919001 93.3067 2.54033 80.3787 5.783 59.216C9.02567 38.0533 10.647 24.4853 10.647 18.512C10.647 12.4533 10.007 7.41866 8.727 3.408C20.247 1.27466 29.5483 0.207993 36.631 0.207993C57.7083 0.207993 68.247 8.95466 68.247 26.448ZM54.807 29.136C54.807 15.056 47.8097 8.01599 33.815 8.01599C31.0843 8.01599 28.183 8.27199 25.111 8.784C25.111 14.0747 23.959 23.7173 21.655 37.712C19.4363 51.6213 18.0283 60.5387 17.431 64.464C27.3297 62.416 35.863 58.704 43.031 53.328C46.7003 50.512 49.559 47.056 51.607 42.96C53.7403 38.7787 54.807 34.1707 54.807 29.136ZM84.528 114.896C77.872 114.896 74.544 109.264 74.544 98C74.544 93.3067 75.44 85.3707 77.232 74.192C79.024 63.0133 79.92 53.84 79.92 46.672C79.92 39.504 79.024 34.2133 77.232 30.8C79.3653 28.8373 81.968 27.856 85.04 27.856C91.2693 27.856 94.384 31.0987 94.384 37.584C94.384 39.888 93.8293 44.624 92.72 51.792C91.696 58.96 91.0133 63.8667 90.672 66.512C95.28 54.3947 100.443 44.7093 106.16 37.456C111.963 30.1173 116.741 26.448 120.496 26.448C122.629 26.448 124.208 27.472 125.232 29.52C126.341 31.568 126.896 33.6587 126.896 35.792C126.896 37.9253 126.64 40.1013 126.128 42.32C124.848 42.064 123.653 41.936 122.544 41.936C117.083 41.936 111.579 45.136 106.032 51.536C100.571 57.936 96.2613 64.976 93.104 72.656C90.032 80.336 88.496 86.6933 88.496 91.728C88.496 100.603 90.1173 106.789 93.36 110.288C90.7147 113.36 87.7707 114.896 84.528 114.896ZM167.398 36.048C163.387 36.048 159.889 37.584 156.902 40.656C154.001 43.6427 151.825 47.44 150.374 52.048C147.643 60.5813 146.278 69.2427 146.278 78.032C146.278 86.736 148.07 93.6907 151.654 98.896C155.238 104.101 160.23 106.704 166.63 106.704C170.726 106.704 174.267 105.211 177.254 102.224C180.241 99.152 182.459 95.312 183.91 90.704C186.641 81.9147 188.006 73.2107 188.006 64.592C188.006 55.888 186.171 48.976 182.502 43.856C178.918 38.6507 173.883 36.048 167.398 36.048ZM160.358 116.176C151.483 116.176 144.614 112.848 139.75 106.192C134.886 99.536 132.454 91.088 132.454 80.848C132.454 74.6187 133.435 68.3467 135.398 62.032C137.361 55.632 140.049 49.7867 143.462 44.496C146.875 39.12 151.27 34.768 156.646 31.44C162.022 28.112 167.825 26.448 174.054 26.448C182.929 26.448 189.755 29.776 194.534 36.432C199.398 43.088 201.83 51.536 201.83 61.776C201.83 72.272 199.441 82.2133 194.662 91.6C189.457 101.755 182.758 108.88 174.566 112.976C170.129 115.109 165.393 116.176 160.358 116.176ZM243.14 6.352C243.14 8.4 242.713 11.0027 241.86 14.16C238.617 16.1227 235.716 17.104 233.156 17.104C230.596 17.104 228.761 16.6347 227.652 15.696C226.628 14.7573 226.116 13.3067 226.116 11.344C226.116 9.38133 226.372 6.86399 226.884 3.79199C230.127 1.82933 233.113 0.847992 235.844 0.847992C240.708 0.847992 243.14 2.68266 243.14 6.352ZM240.964 37.584C240.964 71.8027 238.489 98.256 233.54 116.944C230.724 127.525 226.457 135.291 220.74 140.24C215.023 145.189 208.964 147.664 202.564 147.664C197.7 147.664 193.519 146.384 190.02 143.824C186.521 141.264 184.772 138.107 184.772 134.352C184.772 130.597 186.308 127.269 189.38 124.368C191.087 128.208 193.348 131.28 196.164 133.584C198.895 135.888 201.881 137.04 205.124 137.04C208.367 137.04 211.097 136.144 213.316 134.352C215.535 132.645 217.369 129.915 218.82 126.16C220.356 122.405 221.636 118.139 222.66 113.36C223.684 108.581 224.495 102.608 225.092 95.44C226.031 82.7253 226.5 66.6827 226.5 47.312C226.5 39.376 225.604 33.872 223.812 30.8C224.409 30.032 225.647 29.3493 227.524 28.752C229.401 28.1547 231.279 27.856 233.156 27.856C235.033 27.856 236.783 28.6667 238.404 30.288C240.111 31.824 240.964 34.256 240.964 37.584ZM281.94 78.032C279.636 78.032 277.332 77.904 275.028 77.648C275.113 87.12 276.863 94.3307 280.276 99.28C283.775 104.229 288.639 106.704 294.868 106.704C303.657 106.704 310.057 102.395 314.068 93.776C316.116 95.7387 317.14 98.128 317.14 100.944C317.14 105.723 314.452 109.477 309.076 112.208C303.785 114.853 298.239 116.176 292.436 116.176C282.111 116.176 274.303 112.891 269.012 106.32C263.807 99.7493 261.204 91.2587 261.204 80.848C261.204 74.6187 262.185 68.3467 264.148 62.032C266.111 55.632 268.799 49.7867 272.212 44.496C275.625 39.12 280.02 34.768 285.396 31.44C290.772 28.112 296.66 26.448 303.06 26.448C309.46 26.448 314.324 28.0693 317.652 31.312C321.065 34.5547 322.772 38.736 322.772 43.856C322.772 52.1333 318.932 59.8987 311.252 67.152C303.657 74.4053 293.887 78.032 281.94 78.032ZM309.332 48.08C309.332 44.5813 308.223 41.7227 306.004 39.504C303.871 37.2 300.884 36.048 297.044 36.048C293.289 36.048 290.004 37.1147 287.188 39.248C284.457 41.3813 282.281 44.24 280.66 47.824C277.759 54.48 275.967 61.6907 275.284 69.456C277.332 69.712 279.252 69.84 281.044 69.84C289.748 69.84 296.617 67.6213 301.652 63.184C306.772 58.6613 309.332 53.6267 309.332 48.08ZM367.061 116.176C356.736 116.176 348.928 112.891 343.637 106.32C338.432 99.7493 335.829 91.2587 335.829 80.848C335.829 74.6187 336.81 68.3467 338.773 62.032C340.736 55.632 343.424 49.7867 346.837 44.496C350.25 39.12 354.645 34.768 360.021 31.44C365.397 28.112 371.2 26.448 377.429 26.448C389.29 26.448 395.221 29.904 395.221 36.816C395.221 41.5093 393.301 45.4347 389.461 48.592C387.413 44.5813 384.981 41.5093 382.165 39.376C379.434 37.1573 376.106 36.048 372.181 36.048C368.256 36.048 364.928 37.1147 362.197 39.248C359.466 41.296 357.333 43.856 355.797 46.928C354.346 49.9147 353.152 53.328 352.213 57.168C350.506 63.824 349.653 70.224 349.653 76.368C349.653 86.2667 351.36 93.8187 354.773 99.024C358.186 104.144 363.093 106.704 369.493 106.704C377.514 106.704 383.402 102.395 387.157 93.776C388.949 95.6533 389.845 98.0427 389.845 100.944C389.845 105.723 387.37 109.477 382.421 112.208C377.557 114.853 372.437 116.176 367.061 116.176ZM418.29 33.36L418.546 27.472C418.546 19.536 417.65 13.776 415.858 10.192C416.711 9.42399 417.991 8.74133 419.698 8.144C421.49 7.54666 423.069 7.24799 424.434 7.24799C427.421 7.24799 429.639 8.27199 431.09 10.32C432.541 12.368 433.266 15.824 433.266 20.688C433.266 22.5653 432.754 26.7893 431.73 33.36C442.226 33.1893 449.181 31.952 452.594 29.648C451.911 35.1947 449.991 38.9067 446.834 40.784C443.677 42.6613 438.045 43.6853 429.938 43.856C426.013 68.0053 424.05 86.1387 424.05 98.256C424.05 101.072 424.647 103.163 425.842 104.528C427.122 105.893 428.743 106.576 430.706 106.576C432.754 106.576 434.93 105.723 437.234 104.016C439.538 102.224 441.373 100.005 442.738 97.36C444.274 99.2373 445.042 101.243 445.042 103.376C445.042 106.704 443.378 109.648 440.05 112.208C436.807 114.683 432.583 115.92 427.378 115.92C422.173 115.92 418.034 114.555 414.962 111.824C411.975 109.008 410.482 104.613 410.482 98.64C410.482 93.264 411.463 83.8347 413.426 70.352C415.389 56.784 416.626 47.9947 417.138 43.984C409.543 43.984 403.911 45.136 400.242 47.44C400.242 43.5147 400.626 40.7413 401.394 39.12C402.162 37.4987 403.186 36.3467 404.466 35.664C407.623 34.128 412.231 33.36 418.29 33.36ZM597.514 13.52C597.514 18.2133 595.85 30.4587 592.522 50.256C589.279 69.968 587.658 84.0053 587.658 92.368C587.658 100.645 589.279 106.619 592.522 110.288C589.877 113.36 586.933 114.896 583.69 114.896C577.034 114.896 573.706 109.264 573.706 98C573.706 93.392 575.242 81.1893 578.314 61.392C581.386 41.5093 582.922 27.472 582.922 19.28C570.378 44.4533 563.039 60.368 560.906 67.024C558.773 73.5947 557.706 78.416 557.706 81.488C557.706 82.1707 557.791 83.1947 557.962 84.56C557.365 85.328 556.17 86.0107 554.378 86.608C552.671 87.2053 550.922 87.504 549.13 87.504C545.375 87.504 542.474 86.3093 540.426 83.92C538.463 81.4453 536.671 76.9227 535.05 70.352C533.429 63.696 531.551 55.6747 529.418 46.288C527.285 36.9013 525.322 28.9227 523.53 22.352C523.359 23.9733 521.738 34.128 518.666 52.816C515.679 71.4187 514.186 84.7307 514.186 92.752C514.186 100.773 515.85 106.619 519.178 110.288C517.983 113.36 515.637 114.896 512.138 114.896C505.909 114.896 502.794 109.264 502.794 98C502.794 93.3067 504.287 81.1467 507.274 61.52C510.346 41.808 511.882 28.0693 511.882 20.304C511.882 12.4533 510.986 6.73599 509.194 3.15199C511.157 1.18933 514.143 0.250659 518.154 0.335991C522.165 0.335991 525.578 1.48799 528.394 3.79199C531.295 6.01066 533.514 9.72266 535.05 14.928C536.671 20.048 538.762 28.752 541.322 41.04C543.967 53.328 546.57 63.568 549.13 71.76C551.007 66.64 554.421 58.9173 559.37 48.592C564.319 38.1813 568.501 29.008 571.914 21.072C575.327 13.0507 577.034 7.29066 577.034 3.79199C579.765 1.40266 583.69 0.207993 588.81 0.207993C591.711 0.207993 593.887 1.27466 595.338 3.408C596.789 5.456 597.514 8.82666 597.514 13.52ZM631.145 115.792C625.342 115.792 620.734 112.933 617.321 107.216C613.993 101.499 612.329 93.648 612.329 83.664C612.329 67.6213 615.913 54.096 623.081 43.088C630.334 31.9947 639.252 26.448 649.833 26.448C657.086 26.448 663.102 29.3067 667.881 35.024C668.564 32.3787 669.417 30.5013 670.441 29.392C671.55 28.2827 673.214 27.728 675.433 27.728C677.737 27.728 679.87 28.8373 681.833 31.056C680.297 35.152 678.974 42.0213 677.865 51.664C676.756 61.3067 676.201 70.3093 676.201 78.672C676.201 86.9493 676.628 93.392 677.481 98C678.42 102.523 679.956 106.576 682.089 110.16C679.614 113.317 676.713 114.896 673.385 114.896C666.046 114.896 662.377 105.893 662.377 87.888C662.377 84.9867 662.718 79.9093 663.401 72.656C658.964 85.0293 653.673 95.312 647.529 103.504C641.47 111.696 636.009 115.792 631.145 115.792ZM650.345 35.28C643.092 35.28 637.161 39.504 632.553 47.952C628.03 56.4 625.769 67.2373 625.769 80.464C625.769 87.2053 626.622 92.5387 628.329 96.464C630.121 100.304 632.51 102.224 635.497 102.224C638.569 102.224 642.409 98.896 647.017 92.24C651.71 85.584 655.977 77.4773 659.817 67.92C663.657 58.2773 666.004 49.616 666.857 41.936C661.054 37.4987 655.55 35.28 650.345 35.28ZM750.38 26.96C760.364 26.96 765.356 34.3413 765.356 49.104C765.356 53.3707 764.844 59.5147 763.82 67.536C762.881 75.5573 762.412 81.6587 762.412 85.84C762.412 97.872 764.289 106.021 768.044 110.288C765.057 113.36 762.071 114.896 759.084 114.896C752.001 114.896 748.46 106.619 748.46 90.064C748.46 83.92 749.143 76.1973 750.508 66.896C751.959 57.5093 752.684 51.536 752.684 48.976C752.684 46.3307 752.172 44.2827 751.148 42.832C750.124 41.296 748.332 40.528 745.772 40.528C742.359 40.528 738.263 44.4533 733.484 52.304C728.705 60.0693 724.652 68.8587 721.324 78.672C718.081 88.4 716.46 96.0373 716.46 101.584C716.46 107.131 717.185 110.971 718.636 113.104C715.649 114.299 712.791 114.896 710.06 114.896C707.329 114.896 705.367 113.829 704.172 111.696C703.063 109.477 702.508 106.363 702.508 102.352C702.508 98.256 703.319 90.0213 704.94 77.648C706.561 65.1893 707.372 55.1627 707.372 47.568C707.372 39.888 706.476 34.2987 704.684 30.8C705.537 29.9467 706.817 29.264 708.524 28.752C710.231 28.1547 711.767 27.856 713.132 27.856C716.119 27.856 718.337 28.88 719.788 30.928C721.239 32.976 721.964 36.8587 721.964 42.576C721.964 48.208 720.727 57.936 718.252 71.76C727.383 49.9147 735.148 36.2613 741.548 30.8C744.535 28.24 747.479 26.96 750.38 26.96ZM804.395 115.792C798.592 115.792 793.984 112.933 790.571 107.216C787.243 101.499 785.579 93.648 785.579 83.664C785.579 67.6213 789.163 54.096 796.331 43.088C803.584 31.9947 812.502 26.448 823.083 26.448C830.336 26.448 836.352 29.3067 841.131 35.024C841.814 32.3787 842.667 30.5013 843.691 29.392C844.8 28.2827 846.464 27.728 848.683 27.728C850.987 27.728 853.12 28.8373 855.083 31.056C853.547 35.152 852.224 42.0213 851.115 51.664C850.006 61.3067 849.451 70.3093 849.451 78.672C849.451 86.9493 849.878 93.392 850.731 98C851.67 102.523 853.206 106.576 855.339 110.16C852.864 113.317 849.963 114.896 846.635 114.896C839.296 114.896 835.627 105.893 835.627 87.888C835.627 84.9867 835.968 79.9093 836.651 72.656C832.214 85.0293 826.923 95.312 820.779 103.504C814.72 111.696 809.259 115.792 804.395 115.792ZM823.595 35.28C816.342 35.28 810.411 39.504 805.803 47.952C801.28 56.4 799.019 67.2373 799.019 80.464C799.019 87.2053 799.872 92.5387 801.579 96.464C803.371 100.304 805.76 102.224 808.747 102.224C811.819 102.224 815.659 98.896 820.267 92.24C824.96 85.584 829.227 77.4773 833.067 67.92C836.907 58.2773 839.254 49.616 840.107 41.936C834.304 37.4987 828.8 35.28 823.595 35.28ZM937.198 94.672C937.198 110.544 933.87 123.131 927.214 132.432C920.558 141.819 911.641 146.512 900.462 146.512C897.049 146.512 893.934 146.213 891.118 145.616C888.302 145.104 885.699 143.909 883.31 142.032C880.921 140.155 879.726 137.467 879.726 133.968C879.726 130.469 881.262 127.269 884.334 124.368C889.283 132.816 896.323 137.04 905.454 137.04C910.062 137.04 913.39 135.76 915.438 133.2C916.718 131.749 917.785 130.256 918.638 128.72C919.577 127.184 920.345 124.88 920.942 121.808C921.625 118.736 922.137 115.877 922.478 113.232C922.905 110.501 923.246 106.704 923.502 101.84C923.843 94.928 924.185 85.2427 924.526 72.784C920.089 85.2427 914.798 95.5253 908.654 103.632C902.51 111.739 896.878 115.792 891.758 115.792C886.638 115.792 882.286 113.147 878.702 107.856C875.203 102.48 873.454 94.416 873.454 83.664C873.454 69.9253 876.526 57.2107 882.67 45.52C885.571 39.888 889.497 35.3227 894.446 31.824C899.395 28.24 905.198 26.448 911.854 26.448C918.51 26.448 924.227 29.3067 929.006 35.024C929.689 32.2933 930.542 30.416 931.566 29.392C932.675 28.2827 934.595 27.728 937.326 27.728C940.057 27.728 942.574 28.624 944.878 30.416C943.086 33.488 941.166 37.6267 939.118 42.832C937.838 53.4987 937.198 70.7787 937.198 94.672ZM911.47 35.28C903.961 35.28 897.987 39.632 893.55 48.336C889.113 56.9547 886.894 67.664 886.894 80.464C886.894 86.864 887.705 92.112 889.326 96.208C890.947 100.219 893.337 102.224 896.494 102.224C899.651 102.224 903.534 98.9387 908.142 92.368C912.835 85.712 917.102 77.6053 920.942 68.048C924.782 58.4053 927.129 49.7013 927.982 41.936C922.094 37.4987 916.59 35.28 911.47 35.28ZM980.69 78.032C978.386 78.032 976.082 77.904 973.778 77.648C973.863 87.12 975.613 94.3307 979.026 99.28C982.525 104.229 987.389 106.704 993.618 106.704C1002.41 106.704 1008.81 102.395 1012.82 93.776C1014.87 95.7387 1015.89 98.128 1015.89 100.944C1015.89 105.723 1013.2 109.477 1007.83 112.208C1002.54 114.853 996.989 116.176 991.186 116.176C980.861 116.176 973.053 112.891 967.762 106.32C962.557 99.7493 959.954 91.2587 959.954 80.848C959.954 74.6187 960.935 68.3467 962.898 62.032C964.861 55.632 967.549 49.7867 970.962 44.496C974.375 39.12 978.77 34.768 984.146 31.44C989.522 28.112 995.41 26.448 1001.81 26.448C1008.21 26.448 1013.07 28.0693 1016.4 31.312C1019.82 34.5547 1021.52 38.736 1021.52 43.856C1021.52 52.1333 1017.68 59.8987 1010 67.152C1002.41 74.4053 992.637 78.032 980.69 78.032ZM1008.08 48.08C1008.08 44.5813 1006.97 41.7227 1004.75 39.504C1002.62 37.2 999.634 36.048 995.794 36.048C992.039 36.048 988.754 37.1147 985.938 39.248C983.207 41.3813 981.031 44.24 979.41 47.824C976.509 54.48 974.717 61.6907 974.034 69.456C976.082 69.712 978.002 69.84 979.794 69.84C988.498 69.84 995.367 67.6213 1000.4 63.184C1005.52 58.6613 1008.08 53.6267 1008.08 48.08ZM1095.89 113.104C1092.9 114.299 1090.05 114.896 1087.32 114.896C1084.58 114.896 1082.62 113.829 1081.43 111.696C1080.32 109.477 1079.76 106.32 1079.76 102.224C1079.76 98.128 1080.53 90.192 1082.07 78.416C1083.69 66.64 1084.5 58.1493 1084.5 52.944C1084.5 47.6533 1084.03 44.2827 1083.09 42.832C1082.24 41.296 1080.62 40.528 1078.23 40.528C1075.07 40.528 1071.27 44.4533 1066.84 52.304C1062.4 60.0693 1058.6 68.8587 1055.44 78.672C1052.37 88.4853 1050.84 96.1653 1050.84 101.712C1050.84 107.173 1051.56 110.971 1053.01 113.104C1050.02 114.299 1047.17 114.896 1044.44 114.896C1041.7 114.896 1039.74 113.829 1038.55 111.696C1037.44 109.477 1036.88 106.363 1036.88 102.352C1036.88 98.256 1037.69 90.0213 1039.32 77.648C1040.94 65.1893 1041.75 55.1627 1041.75 47.568C1041.75 39.888 1040.85 34.2987 1039.06 30.8C1039.91 29.9467 1041.19 29.264 1042.9 28.752C1044.61 28.1547 1046.14 27.856 1047.51 27.856C1050.49 27.856 1052.71 28.88 1054.16 30.928C1055.61 32.976 1056.34 36.8587 1056.34 42.576C1056.34 48.208 1055.1 57.936 1052.63 71.76C1061.16 50.0853 1068.5 36.432 1074.64 30.8C1077.46 28.24 1080.28 26.96 1083.09 26.96C1092.48 26.96 1097.17 34.3413 1097.17 49.104C1097.17 56.3573 1096.62 63.9093 1095.51 71.76C1106.34 41.8933 1116.46 26.96 1125.84 26.96C1135.32 26.96 1140.05 34.3413 1140.05 49.104C1140.05 53.3707 1139.54 59.5147 1138.52 67.536C1137.58 75.5573 1137.11 81.6587 1137.11 85.84C1137.11 97.872 1138.98 106.021 1142.74 110.288C1139.92 113.36 1136.98 114.896 1133.91 114.896C1126.82 114.896 1123.28 106.619 1123.28 90.064C1123.28 83.92 1123.97 76.1973 1125.33 66.896C1126.7 57.5093 1127.38 51.536 1127.38 48.976C1127.38 46.3307 1126.91 44.2827 1125.97 42.832C1125.12 41.296 1123.45 40.528 1120.98 40.528C1117.82 40.528 1114.02 44.4533 1109.59 52.304C1105.15 60.0693 1101.4 68.8587 1098.32 78.672C1095.25 88.4853 1093.72 96.1653 1093.72 101.712C1093.72 107.173 1094.44 110.971 1095.89 113.104ZM1181.07 78.032C1178.76 78.032 1176.46 77.904 1174.15 77.648C1174.24 87.12 1175.99 94.3307 1179.4 99.28C1182.9 104.229 1187.76 106.704 1193.99 106.704C1202.78 106.704 1209.18 102.395 1213.19 93.776C1215.24 95.7387 1216.26 98.128 1216.26 100.944C1216.26 105.723 1213.58 109.477 1208.2 112.208C1202.91 114.853 1197.36 116.176 1191.56 116.176C1181.24 116.176 1173.43 112.891 1168.14 106.32C1162.93 99.7493 1160.33 91.2587 1160.33 80.848C1160.33 74.6187 1161.31 68.3467 1163.27 62.032C1165.24 55.632 1167.92 49.7867 1171.34 44.496C1174.75 39.12 1179.15 34.768 1184.52 31.44C1189.9 28.112 1195.79 26.448 1202.19 26.448C1208.59 26.448 1213.45 28.0693 1216.78 31.312C1220.19 34.5547 1221.9 38.736 1221.9 43.856C1221.9 52.1333 1218.06 59.8987 1210.38 67.152C1202.78 74.4053 1193.01 78.032 1181.07 78.032ZM1208.46 48.08C1208.46 44.5813 1207.35 41.7227 1205.13 39.504C1203 37.2 1200.01 36.048 1196.17 36.048C1192.41 36.048 1189.13 37.1147 1186.31 39.248C1183.58 41.3813 1181.41 44.24 1179.79 47.824C1176.88 54.48 1175.09 61.6907 1174.41 69.456C1176.46 69.712 1178.38 69.84 1180.17 69.84C1188.87 69.84 1195.74 67.6213 1200.78 63.184C1205.9 58.6613 1208.46 53.6267 1208.46 48.08ZM1285.13 26.96C1295.11 26.96 1300.11 34.3413 1300.11 49.104C1300.11 53.3707 1299.59 59.5147 1298.57 67.536C1297.63 75.5573 1297.16 81.6587 1297.16 85.84C1297.16 97.872 1299.04 106.021 1302.79 110.288C1299.81 113.36 1296.82 114.896 1293.83 114.896C1286.75 114.896 1283.21 106.619 1283.21 90.064C1283.21 83.92 1283.89 76.1973 1285.26 66.896C1286.71 57.5093 1287.43 51.536 1287.43 48.976C1287.43 46.3307 1286.92 44.2827 1285.9 42.832C1284.87 41.296 1283.08 40.528 1280.52 40.528C1277.11 40.528 1273.01 44.4533 1268.23 52.304C1263.46 60.0693 1259.4 68.8587 1256.07 78.672C1252.83 88.4 1251.21 96.0373 1251.21 101.584C1251.21 107.131 1251.94 110.971 1253.39 113.104C1250.4 114.299 1247.54 114.896 1244.81 114.896C1242.08 114.896 1240.12 113.829 1238.92 111.696C1237.81 109.477 1237.26 106.363 1237.26 102.352C1237.26 98.256 1238.07 90.0213 1239.69 77.648C1241.31 65.1893 1242.12 55.1627 1242.12 47.568C1242.12 39.888 1241.23 34.2987 1239.43 30.8C1240.29 29.9467 1241.57 29.264 1243.27 28.752C1244.98 28.1547 1246.52 27.856 1247.88 27.856C1250.87 27.856 1253.09 28.88 1254.54 30.928C1255.99 32.976 1256.71 36.8587 1256.71 42.576C1256.71 48.208 1255.48 57.936 1253 71.76C1262.13 49.9147 1269.9 36.2613 1276.3 30.8C1279.28 28.24 1282.23 26.96 1285.13 26.96ZM1334.67 33.36L1334.92 27.472C1334.92 19.536 1334.03 13.776 1332.23 10.192C1333.09 9.42399 1334.37 8.74133 1336.07 8.144C1337.87 7.54666 1339.44 7.24799 1340.81 7.24799C1343.8 7.24799 1346.01 8.27199 1347.47 10.32C1348.92 12.368 1349.64 15.824 1349.64 20.688C1349.64 22.5653 1349.13 26.7893 1348.11 33.36C1358.6 33.1893 1365.56 31.952 1368.97 29.648C1368.29 35.1947 1366.37 38.9067 1363.21 40.784C1360.05 42.6613 1354.42 43.6853 1346.31 43.856C1342.39 68.0053 1340.43 86.1387 1340.43 98.256C1340.43 101.072 1341.02 103.163 1342.22 104.528C1343.5 105.893 1345.12 106.576 1347.08 106.576C1349.13 106.576 1351.31 105.723 1353.61 104.016C1355.91 102.224 1357.75 100.005 1359.11 97.36C1360.65 99.2373 1361.42 101.243 1361.42 103.376C1361.42 106.704 1359.75 109.648 1356.43 112.208C1353.18 114.683 1348.96 115.92 1343.75 115.92C1338.55 115.92 1334.41 114.555 1331.34 111.824C1328.35 109.008 1326.86 104.613 1326.86 98.64C1326.86 93.264 1327.84 83.8347 1329.8 70.352C1331.76 56.784 1333 47.9947 1333.51 43.984C1325.92 43.984 1320.29 45.136 1316.62 47.44C1316.62 43.5147 1317 40.7413 1317.77 39.12C1318.54 37.4987 1319.56 36.3467 1320.84 35.664C1324 34.128 1328.61 33.36 1334.67 33.36ZM398.564 292.288C397.198 295.36 394.468 296.896 390.372 296.896C386.276 296.896 382.99 295.829 380.516 293.696C378.126 291.563 376.164 288.021 374.628 283.072C373.177 278.123 371.94 271.552 370.916 263.36H333.412C329.06 273.173 326.884 280.768 326.884 286.144C326.884 288.619 327.396 290.667 328.42 292.288C326.372 295.36 323.428 296.896 319.588 296.896C315.748 296.896 313.828 294.763 313.828 290.496C313.828 288.107 314.553 284.608 316.004 280C317.54 275.307 323.044 263.147 332.516 243.52C341.988 223.808 347.876 210.453 350.18 203.456C352.569 196.373 353.764 191.808 353.764 189.76C353.764 187.712 353.636 186.176 353.38 185.152C356.196 183.189 359.268 182.208 362.596 182.208C365.924 182.208 368.569 183.061 370.532 184.768C372.58 186.389 374.329 189.589 375.78 194.368C377.316 199.147 379.022 211.819 380.9 232.384C382.862 252.949 385.081 267.499 387.556 276.032C389.348 282.347 393.017 287.765 398.564 292.288ZM362.596 201.664C360.633 206.272 356.58 214.805 350.436 227.264C344.292 239.723 339.897 248.853 337.252 254.656H370.02C369.593 249.28 368.868 242.283 367.844 233.664C366.905 224.96 366.265 219.456 365.924 217.152C364.9 211.093 363.79 205.931 362.596 201.664ZM413.312 229.952C413.312 222.016 412.417 216.299 410.625 212.8C411.478 211.947 412.758 211.264 414.465 210.752C416.171 210.155 417.707 209.856 419.073 209.856C422.059 209.856 424.278 210.88 425.729 212.928C427.179 214.976 427.905 218.944 427.905 224.832C427.905 230.72 426.667 240.363 424.193 253.76C429.825 239.339 435.371 228.203 440.833 220.352C446.379 212.416 451.457 208.448 456.065 208.448C461.867 208.448 466.774 211.52 470.785 217.664C474.795 223.723 476.801 232.853 476.801 245.056C476.801 258.283 474.027 270.144 468.481 280.64C465.835 285.76 462.209 289.899 457.601 293.056C453.078 296.213 447.958 297.792 442.241 297.792C438.657 297.792 434.774 297.152 430.593 295.872C426.497 294.507 423.211 292.8 420.737 290.752C420.31 295.616 420.097 299.968 420.097 303.808C420.097 314.56 422.102 321.984 426.113 326.08C423.553 329.152 420.651 330.688 417.409 330.688C410.155 330.688 406.529 324.16 406.529 311.104C406.529 307.52 407.638 296.469 409.857 277.952C412.161 259.349 413.312 243.349 413.312 229.952ZM452.609 222.016C450.561 222.016 448.043 223.723 445.057 227.136C442.07 230.464 439.041 234.859 435.969 240.32C432.982 245.781 430.166 252.48 427.521 260.416C424.875 268.267 422.913 276.245 421.633 284.352C427.094 287.509 433.451 289.088 440.705 289.088C447.958 289.088 453.547 285.333 457.473 277.824C461.483 270.229 463.489 260.629 463.489 249.024C463.489 241.259 462.55 234.816 460.673 229.696C458.881 224.576 456.193 222.016 452.609 222.016ZM501.562 229.952C501.562 222.016 500.667 216.299 498.875 212.8C499.728 211.947 501.008 211.264 502.715 210.752C504.421 210.155 505.957 209.856 507.323 209.856C510.309 209.856 512.528 210.88 513.979 212.928C515.429 214.976 516.155 218.944 516.155 224.832C516.155 230.72 514.917 240.363 512.443 253.76C518.075 239.339 523.621 228.203 529.083 220.352C534.629 212.416 539.707 208.448 544.315 208.448C550.117 208.448 555.024 211.52 559.035 217.664C563.045 223.723 565.051 232.853 565.051 245.056C565.051 258.283 562.277 270.144 556.731 280.64C554.085 285.76 550.459 289.899 545.851 293.056C541.328 296.213 536.208 297.792 530.491 297.792C526.907 297.792 523.024 297.152 518.843 295.872C514.747 294.507 511.461 292.8 508.987 290.752C508.56 295.616 508.347 299.968 508.347 303.808C508.347 314.56 510.352 321.984 514.363 326.08C511.803 329.152 508.901 330.688 505.659 330.688C498.405 330.688 494.779 324.16 494.779 311.104C494.779 307.52 495.888 296.469 498.107 277.952C500.411 259.349 501.562 243.349 501.562 229.952ZM540.859 222.016C538.811 222.016 536.293 223.723 533.307 227.136C530.32 230.464 527.291 234.859 524.219 240.32C521.232 245.781 518.416 252.48 515.771 260.416C513.125 268.267 511.163 276.245 509.883 284.352C515.344 287.509 521.701 289.088 528.955 289.088C536.208 289.088 541.797 285.333 545.723 277.824C549.733 270.229 551.739 260.629 551.739 249.024C551.739 241.259 550.8 234.816 548.923 229.696C547.131 224.576 544.443 222.016 540.859 222.016ZM610.165 189.248C610.165 193.941 608.501 207.211 605.173 229.056C601.93 250.901 600.309 266.048 600.309 274.496C600.309 282.859 601.93 288.789 605.173 292.288C602.527 295.36 599.583 296.896 596.341 296.896C589.685 296.896 586.357 291.264 586.357 280C586.357 275.819 587.85 263.36 590.837 242.624C593.909 221.888 595.445 206.997 595.445 197.952C595.445 188.821 594.549 182.464 592.757 178.88C593.695 178.112 595.018 177.472 596.725 176.96C598.517 176.363 600.053 176.064 601.333 176.064C604.319 176.064 606.538 177.088 607.989 179.136C609.439 181.184 610.165 184.555 610.165 189.248ZM651.001 188.352C651.001 190.485 650.531 193.088 649.593 196.16C646.435 198.123 643.534 199.104 640.889 199.104C638.329 199.104 636.494 198.635 635.385 197.696C634.361 196.757 633.849 195.435 633.849 193.728C633.849 192.021 634.147 189.376 634.745 185.792C637.902 183.829 640.846 182.848 643.577 182.848C648.526 182.848 651.001 184.683 651.001 188.352ZM638.841 296.896C632.185 296.896 628.857 291.264 628.857 280C628.857 275.307 629.753 267.371 631.545 256.192C633.337 245.013 634.233 235.84 634.233 228.672C634.233 221.504 633.337 216.213 631.545 212.8C633.678 210.837 636.281 209.856 639.353 209.856C645.582 209.856 648.697 213.099 648.697 219.584C648.697 221.632 647.715 229.653 645.753 243.648C643.79 257.557 642.809 268.267 642.809 275.776C642.809 283.285 644.43 288.789 647.673 292.288C645.027 295.36 642.083 296.896 638.841 296.896ZM698.749 298.176C688.423 298.176 680.615 294.891 675.325 288.32C670.119 281.749 667.517 273.259 667.517 262.848C667.517 256.619 668.498 250.347 670.461 244.032C672.423 237.632 675.111 231.787 678.525 226.496C681.938 221.12 686.333 216.768 691.708 213.44C697.085 210.112 702.887 208.448 709.117 208.448C720.978 208.448 726.909 211.904 726.909 218.816C726.909 223.509 724.989 227.435 721.149 230.592C719.101 226.581 716.669 223.509 713.853 221.376C711.122 219.157 707.794 218.048 703.869 218.048C699.943 218.048 696.615 219.115 693.885 221.248C691.154 223.296 689.021 225.856 687.485 228.928C686.034 231.915 684.839 235.328 683.901 239.168C682.194 245.824 681.341 252.224 681.341 258.368C681.341 268.267 683.047 275.819 686.461 281.024C689.874 286.144 694.781 288.704 701.181 288.704C709.202 288.704 715.09 284.395 718.845 275.776C720.637 277.653 721.533 280.043 721.533 282.944C721.533 287.723 719.058 291.477 714.109 294.208C709.245 296.853 704.125 298.176 698.749 298.176ZM754.458 297.792C748.655 297.792 744.047 294.933 740.634 289.216C737.306 283.499 735.642 275.648 735.642 265.664C735.642 249.621 739.226 236.096 746.394 225.088C753.647 213.995 762.564 208.448 773.146 208.448C780.399 208.448 786.415 211.307 791.194 217.024C791.876 214.379 792.73 212.501 793.754 211.392C794.863 210.283 796.527 209.728 798.746 209.728C801.05 209.728 803.183 210.837 805.146 213.056C803.61 217.152 802.287 224.021 801.178 233.664C800.068 243.307 799.514 252.309 799.514 260.672C799.514 268.949 799.94 275.392 800.794 280C801.732 284.523 803.268 288.576 805.402 292.16C802.927 295.317 800.026 296.896 796.698 296.896C789.359 296.896 785.69 287.893 785.69 269.888C785.69 266.987 786.031 261.909 786.714 254.656C782.276 267.029 776.986 277.312 770.842 285.504C764.783 293.696 759.322 297.792 754.458 297.792ZM773.658 217.28C766.404 217.28 760.474 221.504 755.866 229.952C751.343 238.4 749.082 249.237 749.082 262.464C749.082 269.205 749.935 274.539 751.642 278.464C753.434 282.304 755.823 284.224 758.81 284.224C761.882 284.224 765.722 280.896 770.33 274.24C775.023 267.584 779.29 259.477 783.13 249.92C786.97 240.277 789.316 231.616 790.17 223.936C784.367 219.499 778.863 217.28 773.658 217.28ZM837.853 215.36L838.109 209.472C838.109 201.536 837.213 195.776 835.421 192.192C836.274 191.424 837.554 190.741 839.261 190.144C841.053 189.547 842.631 189.248 843.997 189.248C846.983 189.248 849.202 190.272 850.653 192.32C852.103 194.368 852.829 197.824 852.829 202.688C852.829 204.565 852.317 208.789 851.293 215.36C861.789 215.189 868.743 213.952 872.157 211.648C871.474 217.195 869.554 220.907 866.397 222.784C863.239 224.661 857.607 225.685 849.501 225.856C845.575 250.005 843.613 268.139 843.613 280.256C843.613 283.072 844.21 285.163 845.405 286.528C846.685 287.893 848.306 288.576 850.269 288.576C852.317 288.576 854.493 287.723 856.797 286.016C859.101 284.224 860.935 282.005 862.301 279.36C863.837 281.237 864.605 283.243 864.605 285.376C864.605 288.704 862.941 291.648 859.613 294.208C856.37 296.683 852.146 297.92 846.941 297.92C841.735 297.92 837.597 296.555 834.525 293.824C831.538 291.008 830.045 286.613 830.045 280.64C830.045 275.264 831.026 265.835 832.989 252.352C834.951 238.784 836.189 229.995 836.701 225.984C829.106 225.984 823.474 227.136 819.805 229.44C819.805 225.515 820.189 222.741 820.957 221.12C821.725 219.499 822.749 218.347 824.029 217.664C827.186 216.128 831.794 215.36 837.853 215.36ZM901.876 188.352C901.876 190.485 901.406 193.088 900.468 196.16C897.31 198.123 894.409 199.104 891.764 199.104C889.204 199.104 887.369 198.635 886.26 197.696C885.236 196.757 884.724 195.435 884.724 193.728C884.724 192.021 885.022 189.376 885.62 185.792C888.777 183.829 891.721 182.848 894.452 182.848C899.401 182.848 901.876 184.683 901.876 188.352ZM889.716 296.896C883.06 296.896 879.732 291.264 879.732 280C879.732 275.307 880.628 267.371 882.42 256.192C884.212 245.013 885.108 235.84 885.108 228.672C885.108 221.504 884.212 216.213 882.42 212.8C884.553 210.837 887.156 209.856 890.228 209.856C896.457 209.856 899.572 213.099 899.572 219.584C899.572 221.632 898.59 229.653 896.628 243.648C894.665 257.557 893.684 268.267 893.684 275.776C893.684 283.285 895.305 288.789 898.548 292.288C895.902 295.36 892.958 296.896 889.716 296.896ZM953.336 218.048C949.325 218.048 945.826 219.584 942.84 222.656C939.938 225.643 937.762 229.44 936.312 234.048C933.581 242.581 932.216 251.243 932.216 260.032C932.216 268.736 934.008 275.691 937.592 280.896C941.176 286.101 946.168 288.704 952.568 288.704C956.664 288.704 960.205 287.211 963.192 284.224C966.178 281.152 968.397 277.312 969.848 272.704C972.578 263.915 973.944 255.211 973.944 246.592C973.944 237.888 972.109 230.976 968.44 225.856C964.856 220.651 959.821 218.048 953.336 218.048ZM946.296 298.176C937.421 298.176 930.552 294.848 925.688 288.192C920.824 281.536 918.392 273.088 918.392 262.848C918.392 256.619 919.373 250.347 921.336 244.032C923.298 237.632 925.986 231.787 929.4 226.496C932.813 221.12 937.208 216.768 942.583 213.44C947.96 210.112 953.762 208.448 959.992 208.448C968.866 208.448 975.693 211.776 980.472 218.432C985.336 225.088 987.768 233.536 987.768 243.776C987.768 254.272 985.378 264.213 980.6 273.6C975.394 283.755 968.696 290.88 960.504 294.976C956.066 297.109 951.33 298.176 946.296 298.176ZM1055.32 208.96C1065.3 208.96 1070.29 216.341 1070.29 231.104C1070.29 235.371 1069.78 241.515 1068.76 249.536C1067.82 257.557 1067.35 263.659 1067.35 267.84C1067.35 279.872 1069.23 288.021 1072.98 292.288C1069.99 295.36 1067.01 296.896 1064.02 296.896C1056.94 296.896 1053.4 288.619 1053.4 272.064C1053.4 265.92 1054.08 258.197 1055.45 248.896C1056.9 239.509 1057.62 233.536 1057.62 230.976C1057.62 228.331 1057.11 226.283 1056.09 224.832C1055.06 223.296 1053.27 222.528 1050.71 222.528C1047.3 222.528 1043.2 226.453 1038.42 234.304C1033.64 242.069 1029.59 250.859 1026.26 260.672C1023.02 270.4 1021.4 278.037 1021.4 283.584C1021.4 289.131 1022.12 292.971 1023.57 295.104C1020.59 296.299 1017.73 296.896 1015 296.896C1012.27 296.896 1010.3 295.829 1009.11 293.696C1008 291.477 1007.45 288.363 1007.45 284.352C1007.45 280.256 1008.26 272.021 1009.88 259.648C1011.5 247.189 1012.31 237.163 1012.31 229.568C1012.31 221.888 1011.41 216.299 1009.62 212.8C1010.47 211.947 1011.75 211.264 1013.46 210.752C1015.17 210.155 1016.7 209.856 1018.07 209.856C1021.06 209.856 1023.27 210.88 1024.73 212.928C1026.18 214.976 1026.9 218.859 1026.9 224.576C1026.9 230.208 1025.66 239.936 1023.19 253.76C1032.32 231.915 1040.09 218.261 1046.49 212.8C1049.47 210.24 1052.42 208.96 1055.32 208.96Z" fill="white"/>
</svg>
