<svg width="110" height="24" viewBox="0 0 110 24" fill="none" xmlns="http://www.w3.org/2000/svg">
<path d="M21.2683 1.42C21.8057 1.524 22.2043 1.706 22.4643 1.966C22.7417 2.226 22.8803 2.52933 22.8803 2.876C22.8803 3.448 22.7157 3.864 22.3863 4.124C22.0743 4.384 21.5717 4.488 20.8783 4.436C19.3183 4.31467 18.0963 4.23667 17.2123 4.202C16.3457 4.15 15.2017 4.11533 13.7803 4.098C13.139 7.28733 12.5497 10.494 12.0123 13.718C11.8217 14.8967 11.6223 16.266 11.4143 17.826C11.2063 19.3687 11.0677 20.6167 10.9983 21.57C10.9637 22.0727 10.7557 22.4627 10.3743 22.74C9.99301 23 9.53368 23.13 8.99634 23.13C8.42434 23.13 7.98234 22.9913 7.67034 22.714C7.35834 22.4367 7.20234 22.0727 7.20234 21.622C7.20234 21.206 7.26301 20.5213 7.38434 19.568C7.52301 18.5973 7.67901 17.5833 7.85234 16.526C8.04301 15.4687 8.19034 14.55 8.29434 13.77C8.48501 12.4527 8.70168 11.144 8.94434 9.844C9.18701 8.544 9.42968 7.31333 9.67234 6.152C9.72434 5.892 9.78501 5.59733 9.85434 5.268C9.92368 4.92133 10.0017 4.54 10.0883 4.124C8.38968 4.176 7.05501 4.31467 6.08434 4.54C5.11368 4.76533 4.42034 5.086 4.00434 5.502C3.60568 5.90067 3.40634 6.42067 3.40634 7.062C3.40634 7.65133 3.57968 8.21467 3.92634 8.752C3.99568 8.87333 4.03034 9.00333 4.03034 9.142C4.03034 9.47133 3.83101 9.78333 3.43234 10.078C3.05101 10.3553 2.65234 10.494 2.23634 10.494C1.94168 10.494 1.69901 10.4073 1.50834 10.234C1.16168 9.93933 0.875677 9.52333 0.650344 8.986C0.42501 8.43133 0.312344 7.80733 0.312344 7.114C0.312344 5.64067 0.78901 4.462 1.74234 3.578C2.71301 2.67667 4.17768 2.018 6.13634 1.602C8.11234 1.186 10.643 0.977998 13.7283 0.977998C15.635 0.977998 17.1517 1.01267 18.2783 1.082C19.4223 1.15133 20.419 1.264 21.2683 1.42ZM28.0393 17.202C28.2646 17.202 28.438 17.306 28.5593 17.514C28.698 17.722 28.7673 18.008 28.7673 18.372C28.7673 19.0653 28.6026 19.6027 28.2733 19.984C27.632 20.764 26.722 21.4833 25.5433 22.142C24.382 22.8007 23.134 23.13 21.7993 23.13C19.9793 23.13 18.5666 22.636 17.5613 21.648C16.556 20.66 16.0533 19.308 16.0533 17.592C16.0533 16.396 16.3046 15.2867 16.8073 14.264C17.31 13.224 18.0033 12.4007 18.8873 11.794C19.7886 11.1873 20.8026 10.884 21.9293 10.884C22.9346 10.884 23.7406 11.1873 24.3473 11.794C24.954 12.3833 25.2573 13.1893 25.2573 14.212C25.2573 15.408 24.824 16.4393 23.9573 17.306C23.108 18.1553 21.6606 18.8313 19.6153 19.334C20.0486 20.1313 20.872 20.53 22.0853 20.53C22.8653 20.53 23.7493 20.2613 24.7373 19.724C25.7426 19.1693 26.6093 18.45 27.3373 17.566C27.5453 17.3233 27.7793 17.202 28.0393 17.202ZM21.4873 13.432C20.846 13.432 20.3 13.8047 19.8493 14.55C19.416 15.2953 19.1993 16.1967 19.1993 17.254V17.306C20.222 17.0633 21.028 16.6993 21.6173 16.214C22.2066 15.7287 22.5013 15.1653 22.5013 14.524C22.5013 14.1947 22.406 13.9347 22.2153 13.744C22.042 13.536 21.7993 13.432 21.4873 13.432ZM28.4963 23.13C27.8377 23.13 27.3697 22.7833 27.0923 22.09C26.8323 21.3967 26.7023 20.2873 26.7023 18.762C26.7023 16.5087 27.023 14.368 27.6643 12.34C27.8203 11.8373 28.0717 11.4733 28.4183 11.248C28.7823 11.0053 29.285 10.884 29.9263 10.884C30.273 10.884 30.5157 10.9273 30.6543 11.014C30.793 11.1007 30.8623 11.2653 30.8623 11.508C30.8623 11.7853 30.7323 12.4093 30.4723 13.38C30.299 14.0733 30.1603 14.68 30.0563 15.2C29.9523 15.72 29.8657 16.3613 29.7963 17.124C30.3683 15.6333 31.0097 14.42 31.7203 13.484C32.431 12.548 33.1243 11.8807 33.8003 11.482C34.4937 11.0833 35.1263 10.884 35.6983 10.884C36.825 10.884 37.3883 11.4473 37.3883 12.574C37.3883 12.7993 37.3103 13.3453 37.1543 14.212C37.0157 14.9053 36.9463 15.3387 36.9463 15.512C36.9463 16.1187 37.163 16.422 37.5963 16.422C38.0817 16.422 38.7057 16.0407 39.4683 15.278C39.6937 15.0527 39.9277 14.94 40.1703 14.94C40.3957 14.94 40.569 15.044 40.6903 15.252C40.829 15.4427 40.8983 15.7027 40.8983 16.032C40.8983 16.6733 40.725 17.176 40.3783 17.54C39.893 18.0427 39.321 18.476 38.6623 18.84C38.021 19.1867 37.3363 19.36 36.6083 19.36C35.6897 19.36 34.9877 19.126 34.5023 18.658C34.0343 18.19 33.8003 17.5573 33.8003 16.76C33.8003 16.5 33.8263 16.24 33.8783 15.98C33.913 15.6333 33.9303 15.3993 33.9303 15.278C33.9303 15.0007 33.835 14.862 33.6443 14.862C33.3843 14.862 33.0377 15.1567 32.6043 15.746C32.1883 16.318 31.7723 17.0807 31.3563 18.034C30.9403 18.9873 30.6023 19.9927 30.3423 21.05C30.1517 21.8647 29.9263 22.4193 29.6663 22.714C29.4237 22.9913 29.0337 23.13 28.4963 23.13ZM40.3284 23.13C39.6697 23.13 39.2017 22.7833 38.9244 22.09C38.6644 21.3967 38.5344 20.2873 38.5344 18.762C38.5344 16.5087 38.855 14.368 39.4964 12.34C39.6524 11.8373 39.9037 11.4733 40.2504 11.248C40.6144 11.0053 41.117 10.884 41.7584 10.884C42.105 10.884 42.3477 10.9273 42.4864 11.014C42.625 11.1007 42.6944 11.2653 42.6944 11.508C42.6944 11.7853 42.5644 12.4093 42.3044 13.38C42.131 14.0733 41.9924 14.68 41.8884 15.2C41.7844 15.72 41.6977 16.3613 41.6284 17.124C42.2004 15.6333 42.8417 14.42 43.5524 13.484C44.263 12.548 44.9564 11.8807 45.6324 11.482C46.3257 11.0833 46.9584 10.884 47.5304 10.884C48.657 10.884 49.2204 11.4473 49.2204 12.574C49.2204 12.7993 49.1424 13.3453 48.9864 14.212C48.8477 14.9053 48.7784 15.3387 48.7784 15.512C48.7784 16.1187 48.995 16.422 49.4284 16.422C49.9137 16.422 50.5377 16.0407 51.3004 15.278C51.5257 15.0527 51.7597 14.94 52.0024 14.94C52.2277 14.94 52.401 15.044 52.5224 15.252C52.661 15.4427 52.7304 15.7027 52.7304 16.032C52.7304 16.6733 52.557 17.176 52.2104 17.54C51.725 18.0427 51.153 18.476 50.4944 18.84C49.853 19.1867 49.1684 19.36 48.4404 19.36C47.5217 19.36 46.8197 19.126 46.3344 18.658C45.8664 18.19 45.6324 17.5573 45.6324 16.76C45.6324 16.5 45.6584 16.24 45.7104 15.98C45.745 15.6333 45.7624 15.3993 45.7624 15.278C45.7624 15.0007 45.667 14.862 45.4764 14.862C45.2164 14.862 44.8697 15.1567 44.4364 15.746C44.0204 16.318 43.6044 17.0807 43.1884 18.034C42.7724 18.9873 42.4344 19.9927 42.1744 21.05C41.9837 21.8647 41.7584 22.4193 41.4984 22.714C41.2557 22.9913 40.8657 23.13 40.3284 23.13ZM53.5124 23.13C52.4377 23.13 51.5797 22.74 50.9384 21.96C50.2971 21.18 49.9764 20.1573 49.9764 18.892C49.9764 17.5053 50.2971 16.1967 50.9384 14.966C51.5797 13.718 52.4291 12.7213 53.4864 11.976C54.5611 11.2133 55.6964 10.832 56.8924 10.832C57.2737 10.832 57.5251 10.91 57.6464 11.066C57.7851 11.2047 57.8977 11.4647 57.9844 11.846C58.3484 11.7767 58.7297 11.742 59.1284 11.742C59.9777 11.742 60.4024 12.0453 60.4024 12.652C60.4024 13.016 60.2724 13.8827 60.0124 15.252C59.6137 17.2453 59.4144 18.632 59.4144 19.412C59.4144 19.672 59.4751 19.88 59.5964 20.036C59.7351 20.192 59.9084 20.27 60.1164 20.27C60.4457 20.27 60.8444 20.062 61.3124 19.646C61.7804 19.2127 62.4131 18.5193 63.2104 17.566C63.4184 17.3233 63.6524 17.202 63.9124 17.202C64.1377 17.202 64.3111 17.306 64.4324 17.514C64.5711 17.722 64.6404 18.008 64.6404 18.372C64.6404 19.0653 64.4757 19.6027 64.1464 19.984C63.4357 20.868 62.6817 21.6133 61.8844 22.22C61.0871 22.8267 60.3157 23.13 59.5704 23.13C58.9984 23.13 58.4697 22.9393 57.9844 22.558C57.5164 22.1593 57.1611 21.622 56.9184 20.946C56.0171 22.402 54.8817 23.13 53.5124 23.13ZM54.4484 20.504C54.8297 20.504 55.1937 20.2787 55.5404 19.828C55.8871 19.3773 56.1384 18.7793 56.2944 18.034L57.2564 13.25C56.5284 13.2673 55.8524 13.5447 55.2284 14.082C54.6217 14.602 54.1364 15.2953 53.7724 16.162C53.4084 17.0287 53.2264 17.9473 53.2264 18.918C53.2264 19.4553 53.3304 19.854 53.5384 20.114C53.7637 20.374 54.0671 20.504 54.4484 20.504ZM83.1453 1.42C83.6826 1.524 84.0813 1.706 84.3413 1.966C84.6186 2.226 84.7573 2.52933 84.7573 2.876C84.7573 3.448 84.5926 3.864 84.2633 4.124C83.9513 4.384 83.4486 4.488 82.7553 4.436C81.1953 4.31467 79.9733 4.23667 79.0893 4.202C78.2226 4.15 77.0786 4.11533 75.6573 4.098C75.016 7.28733 74.4266 10.494 73.8893 13.718C73.6986 14.8967 73.4993 16.266 73.2913 17.826C73.0833 19.3687 72.9446 20.6167 72.8753 21.57C72.8406 22.0727 72.6326 22.4627 72.2513 22.74C71.87 23 71.4106 23.13 70.8733 23.13C70.3013 23.13 69.8593 22.9913 69.5473 22.714C69.2353 22.4367 69.0793 22.0727 69.0793 21.622C69.0793 21.206 69.14 20.5213 69.2613 19.568C69.4 18.5973 69.556 17.5833 69.7293 16.526C69.92 15.4687 70.0673 14.55 70.1713 13.77C70.362 12.4527 70.5786 11.144 70.8213 9.844C71.064 8.544 71.3066 7.31333 71.5493 6.152C71.6013 5.892 71.662 5.59733 71.7313 5.268C71.8006 4.92133 71.8786 4.54 71.9653 4.124C70.2666 4.176 68.932 4.31467 67.9613 4.54C66.9906 4.76533 66.2973 5.086 65.8813 5.502C65.4826 5.90067 65.2833 6.42067 65.2833 7.062C65.2833 7.65133 65.4566 8.21467 65.8033 8.752C65.8726 8.87333 65.9073 9.00333 65.9073 9.142C65.9073 9.47133 65.708 9.78333 65.3093 10.078C64.928 10.3553 64.5293 10.494 64.1133 10.494C63.8186 10.494 63.576 10.4073 63.3853 10.234C63.0386 9.93933 62.7526 9.52333 62.5273 8.986C62.302 8.43133 62.1893 7.80733 62.1893 7.114C62.1893 5.64067 62.666 4.462 63.6193 3.578C64.59 2.67667 66.0546 2.018 68.0133 1.602C69.9893 1.186 72.52 0.977998 75.6053 0.977998C77.512 0.977998 79.0286 1.01267 80.1553 1.082C81.2993 1.15133 82.296 1.264 83.1453 1.42ZM89.9163 17.202C90.1416 17.202 90.3149 17.306 90.4363 17.514C90.5749 17.722 90.6443 18.008 90.6443 18.372C90.6443 19.0653 90.4796 19.6027 90.1503 19.984C89.5089 20.764 88.5989 21.4833 87.4203 22.142C86.2589 22.8007 85.0109 23.13 83.6763 23.13C81.8563 23.13 80.4436 22.636 79.4383 21.648C78.4329 20.66 77.9303 19.308 77.9303 17.592C77.9303 16.396 78.1816 15.2867 78.6843 14.264C79.1869 13.224 79.8803 12.4007 80.7643 11.794C81.6656 11.1873 82.6796 10.884 83.8063 10.884C84.8116 10.884 85.6176 11.1873 86.2243 11.794C86.8309 12.3833 87.1343 13.1893 87.1343 14.212C87.1343 15.408 86.7009 16.4393 85.8343 17.306C84.9849 18.1553 83.5376 18.8313 81.4923 19.334C81.9256 20.1313 82.7489 20.53 83.9623 20.53C84.7423 20.53 85.6263 20.2613 86.6143 19.724C87.6196 19.1693 88.4863 18.45 89.2143 17.566C89.4223 17.3233 89.6563 17.202 89.9163 17.202ZM83.3643 13.432C82.7229 13.432 82.1769 13.8047 81.7263 14.55C81.2929 15.2953 81.0763 16.1967 81.0763 17.254V17.306C82.0989 17.0633 82.9049 16.6993 83.4943 16.214C84.0836 15.7287 84.3783 15.1653 84.3783 14.524C84.3783 14.1947 84.2829 13.9347 84.0923 13.744C83.9189 13.536 83.6763 13.432 83.3643 13.432ZM91.5983 23.13C90.5237 23.13 89.6657 22.74 89.0243 21.96C88.383 21.18 88.0623 20.1573 88.0623 18.892C88.0623 17.5053 88.383 16.1967 89.0243 14.966C89.6657 13.718 90.515 12.7213 91.5723 11.976C92.647 11.2133 93.7823 10.832 94.9783 10.832C95.3597 10.832 95.611 10.91 95.7323 11.066C95.871 11.2047 95.9837 11.4647 96.0703 11.846C96.4343 11.7767 96.8157 11.742 97.2143 11.742C98.0637 11.742 98.4883 12.0453 98.4883 12.652C98.4883 13.016 98.3583 13.8827 98.0983 15.252C97.6997 17.2453 97.5003 18.632 97.5003 19.412C97.5003 19.672 97.561 19.88 97.6823 20.036C97.821 20.192 97.9943 20.27 98.2023 20.27C98.5317 20.27 98.9303 20.062 99.3983 19.646C99.8663 19.2127 100.499 18.5193 101.296 17.566C101.504 17.3233 101.738 17.202 101.998 17.202C102.224 17.202 102.397 17.306 102.518 17.514C102.657 17.722 102.726 18.008 102.726 18.372C102.726 19.0653 102.562 19.6027 102.232 19.984C101.522 20.868 100.768 21.6133 99.9703 22.22C99.173 22.8267 98.4017 23.13 97.6563 23.13C97.0843 23.13 96.5557 22.9393 96.0703 22.558C95.6023 22.1593 95.247 21.622 95.0043 20.946C94.103 22.402 92.9677 23.13 91.5983 23.13ZM92.5343 20.504C92.9157 20.504 93.2797 20.2787 93.6263 19.828C93.973 19.3773 94.2243 18.7793 94.3803 18.034L95.3423 13.25C94.6143 13.2673 93.9383 13.5447 93.3143 14.082C92.7077 14.602 92.2223 15.2953 91.8583 16.162C91.4943 17.0287 91.3123 17.9473 91.3123 18.918C91.3123 19.4553 91.4163 19.854 91.6243 20.114C91.8497 20.374 92.153 20.504 92.5343 20.504ZM105.449 23.702C104.548 23.702 103.855 23.494 103.369 23.078C102.901 22.662 102.667 22.194 102.667 21.674C102.667 21.2233 102.832 20.8333 103.161 20.504C103.491 20.1747 103.976 20.01 104.617 20.01C104.843 20.01 105.103 20.036 105.397 20.088C105.709 20.1227 105.943 20.1487 106.099 20.166C106.082 19.7153 105.978 19.2907 105.787 18.892C105.614 18.4933 105.389 18.112 105.111 17.748C104.834 17.3667 104.574 17.0373 104.331 16.76C103.794 17.7827 103.257 18.632 102.719 19.308C102.199 19.984 101.627 20.6253 101.003 21.232C100.691 21.544 100.362 21.7 100.015 21.7C99.7379 21.7 99.5126 21.6047 99.3392 21.414C99.1659 21.206 99.0792 20.9547 99.0792 20.66C99.0792 20.3133 99.2006 19.9927 99.4432 19.698L99.7812 19.282C100.735 18.1033 101.454 17.1327 101.939 16.37C102.251 15.8673 102.563 15.2693 102.875 14.576C103.205 13.8827 103.629 12.938 104.149 11.742C104.479 10.9793 105.163 10.598 106.203 10.598C106.689 10.598 107.027 10.6413 107.217 10.728C107.408 10.8147 107.503 10.9533 107.503 11.144C107.503 11.248 107.469 11.4127 107.399 11.638C107.33 11.8633 107.235 12.0887 107.113 12.314C106.801 12.938 106.645 13.4667 106.645 13.9C106.645 14.16 106.732 14.446 106.905 14.758C107.096 15.07 107.382 15.46 107.763 15.928C108.318 16.656 108.734 17.28 109.011 17.8C109.306 18.3027 109.453 18.8573 109.453 19.464C109.453 20.192 109.28 20.8853 108.933 21.544C108.604 22.1853 108.136 22.7053 107.529 23.104C106.923 23.5027 106.229 23.702 105.449 23.702Z" fill="white"/>
</svg>
